<?xml version="1.0" encoding="UTF-8" standalone="no"?>
<!DOCTYPE svg PUBLIC "-//W3C//DTD SVG 1.1//EN" "http://www.w3.org/Graphics/SVG/1.1/DTD/svg11.dtd">
<svg width="100%" height="100%" viewBox="0 0 288 93" version="1.1" xmlns="http://www.w3.org/2000/svg" xmlns:xlink="http://www.w3.org/1999/xlink" xml:space="preserve" xmlns:serif="http://www.serif.com/" style="fill-rule:evenodd;clip-rule:evenodd;stroke-miterlimit:10;">
    <rect id="path57596" x="0" y="0.504" width="288" height="91.383" style="fill:rgb(0,9,40);fill-rule:nonzero;"/>
    <path id="path57598" d="M15.074,55.332L288,55.332" style="fill:none;fill-rule:nonzero;stroke:rgb(42,42,42);stroke-width:14px;"/>
    <path id="path57600" d="M15.074,24.871L288,24.871" style="fill:none;fill-rule:nonzero;stroke:rgb(42,42,42);stroke-width:3px;"/>
    <path id="path57602" d="M15.074,30.965L288,30.965" style="fill:none;fill-rule:nonzero;stroke:rgb(42,42,42);stroke-width:2.54px;"/>
    <path id="path57604" d="M15.074,37.059L288,37.059" style="fill:none;fill-rule:nonzero;stroke:rgb(42,42,42);stroke-width:3px;"/>
    <path id="path57606" d="M15.074,43.148L288,43.148" style="fill:none;fill-rule:nonzero;stroke:rgb(42,42,42);stroke-width:2.54px;"/>
    <path id="path57608" d="M15.074,67.52L288,67.52" style="fill:none;fill-rule:nonzero;stroke:rgb(42,42,42);stroke-width:3.5px;"/>
    <path id="path57610" d="M102.805,80.574C102.805,83.785 100.203,86.387 96.992,86.387C93.785,86.387 91.184,83.785 91.184,80.574C91.184,77.367 93.785,74.766 96.992,74.766C100.203,74.766 102.805,77.367 102.805,80.574" style="fill:rgb(51,51,51);fill-rule:nonzero;"/>
    <rect id="path57614" x="96.332" y="77.086" width="1.324" height="6.98" style="fill-rule:nonzero;"/>
    <rect id="path57616" x="93.504" y="79.914" width="6.98" height="1.32" style="fill-rule:nonzero;"/>
    <path id="path57618" d="M102.805,11.813C102.805,15.023 100.203,17.625 96.992,17.625C93.785,17.625 91.184,15.023 91.184,11.813C91.184,8.605 93.785,6.004 96.992,6.004C100.203,6.004 102.805,8.605 102.805,11.813" style="fill:rgb(51,51,51);fill-rule:nonzero;"/>
    <rect id="path57622" x="96.332" y="8.324" width="1.324" height="6.98" style="fill-rule:nonzero;"/>
    <rect id="path57624" x="93.504" y="11.152" width="6.98" height="1.324" style="fill-rule:nonzero;"/>
    <rect id="path57626" x="0.52" y="12.734" width="20.148" height="66.918" style="fill:rgb(15,15,15);fill-rule:nonzero;"/>
    <rect id="path57628" x="2.797" y="15.492" width="15.594" height="61.402" style="fill:rgb(12,12,12);fill-rule:nonzero;stroke:rgb(43,43,43);stroke-width:1px;stroke-linejoin:round;stroke-miterlimit:2;"/>
    <rect id="path57630" x="6.785" y="24.109" width="1.523" height="1.523" style="fill:rgb(135,135,135);fill-rule:nonzero;"/>
    <rect id="path57632" x="12.879" y="24.109" width="1.523" height="1.523" style="fill:rgb(135,135,135);fill-rule:nonzero;"/>
    <rect id="path57634" x="6.785" y="30.203" width="1.523" height="1.523" style="fill:rgb(135,135,135);fill-rule:nonzero;"/>
    <rect id="path57636" x="12.879" y="30.203" width="1.523" height="1.523" style="fill:rgb(135,135,135);fill-rule:nonzero;"/>
    <rect id="path57638" x="6.785" y="36.297" width="1.523" height="1.52" style="fill:rgb(135,135,135);fill-rule:nonzero;"/>
    <rect id="path57640" x="12.879" y="36.297" width="1.523" height="1.52" style="fill:rgb(135,135,135);fill-rule:nonzero;"/>
    <rect id="path57642" x="6.785" y="42.387" width="1.523" height="1.523" style="fill:rgb(135,135,135);fill-rule:nonzero;"/>
    <rect id="path57644" x="12.879" y="42.387" width="1.523" height="1.523" style="fill:rgb(135,135,135);fill-rule:nonzero;"/>
    <rect id="path57646" x="6.785" y="48.48" width="1.523" height="1.523" style="fill:rgb(135,135,135);fill-rule:nonzero;"/>
    <rect id="path57648" x="12.879" y="48.48" width="1.523" height="1.523" style="fill:rgb(135,135,135);fill-rule:nonzero;"/>
    <rect id="path57650" x="6.785" y="54.57" width="1.523" height="1.523" style="fill:rgb(135,135,135);fill-rule:nonzero;"/>
    <rect id="path57652" x="12.879" y="54.57" width="1.523" height="1.523" style="fill:rgb(135,135,135);fill-rule:nonzero;"/>
    <rect id="path57654" x="6.785" y="60.664" width="1.523" height="1.523" style="fill:rgb(135,135,135);fill-rule:nonzero;"/>
    <rect id="path57656" x="12.879" y="60.664" width="1.523" height="1.523" style="fill:rgb(135,135,135);fill-rule:nonzero;"/>
    <rect id="path57658" x="6.785" y="66.754" width="1.523" height="1.523" style="fill:rgb(135,135,135);fill-rule:nonzero;"/>
    <rect id="path57660" x="12.879" y="66.754" width="1.523" height="1.523" style="fill:rgb(135,135,135);fill-rule:nonzero;"/>
    <path id="path57664" d="M0,0.504L288,0.504" style="fill:none;fill-rule:nonzero;stroke:black;stroke-width:0.85px;"/>
    <path id="path57666" d="M0,91.883L288,91.883" style="fill:none;fill-rule:nonzero;stroke:black;stroke-width:0.85px;"/>
    <rect id="path57670" x="58.121" y="12.738" width="20.148" height="66.914" style="fill:rgb(15,15,15);fill-rule:nonzero;"/>
    <rect id="path57672" x="60.395" y="15.492" width="15.598" height="61.402" style="fill:rgb(12,12,12);fill-rule:nonzero;stroke:rgb(43,43,43);stroke-width:1px;stroke-linejoin:round;stroke-miterlimit:2;"/>
    <rect id="path57674" x="64.387" y="24.109" width="1.523" height="1.523" style="fill:rgb(135,135,135);fill-rule:nonzero;"/>
    <rect id="path57676" x="70.477" y="24.109" width="1.523" height="1.523" style="fill:rgb(135,135,135);fill-rule:nonzero;"/>
    <rect id="path57678" x="64.387" y="30.203" width="1.523" height="1.523" style="fill:rgb(135,135,135);fill-rule:nonzero;"/>
    <rect id="path57680" x="70.477" y="30.203" width="1.523" height="1.523" style="fill:rgb(135,135,135);fill-rule:nonzero;"/>
    <rect id="path57682" x="64.387" y="36.297" width="1.523" height="1.52" style="fill:rgb(135,135,135);fill-rule:nonzero;"/>
    <rect id="path57684" x="70.477" y="36.297" width="1.523" height="1.52" style="fill:rgb(135,135,135);fill-rule:nonzero;"/>
    <rect id="path57686" x="64.387" y="42.387" width="1.523" height="1.523" style="fill:rgb(135,135,135);fill-rule:nonzero;"/>
    <rect id="path57688" x="70.477" y="42.387" width="1.523" height="1.523" style="fill:rgb(135,135,135);fill-rule:nonzero;"/>
    <rect id="path57690" x="64.387" y="48.48" width="1.523" height="1.523" style="fill:rgb(135,135,135);fill-rule:nonzero;"/>
    <rect id="path57692" x="70.477" y="48.48" width="1.523" height="1.523" style="fill:rgb(135,135,135);fill-rule:nonzero;"/>
    <rect id="path57694" x="64.387" y="54.57" width="1.523" height="1.523" style="fill:rgb(135,135,135);fill-rule:nonzero;"/>
    <rect id="path57696" x="70.477" y="54.57" width="1.523" height="1.523" style="fill:rgb(135,135,135);fill-rule:nonzero;"/>
    <rect id="path57698" x="64.387" y="60.664" width="1.523" height="1.523" style="fill:rgb(135,135,135);fill-rule:nonzero;"/>
    <rect id="path57700" x="70.477" y="60.664" width="1.523" height="1.523" style="fill:rgb(135,135,135);fill-rule:nonzero;"/>
    <rect id="path57702" x="64.387" y="66.754" width="1.523" height="1.523" style="fill:rgb(135,135,135);fill-rule:nonzero;"/>
    <rect id="path57704" x="70.477" y="66.754" width="1.523" height="1.523" style="fill:rgb(135,135,135);fill-rule:nonzero;"/>
    <rect id="path57708" x="115.723" y="12.738" width="20.145" height="66.914" style="fill:rgb(15,15,15);fill-rule:nonzero;"/>
    <rect id="path57710" x="117.996" y="15.492" width="15.598" height="61.402" style="fill:rgb(12,12,12);fill-rule:nonzero;stroke:rgb(43,43,43);stroke-width:1px;stroke-linejoin:round;stroke-miterlimit:2;"/>
    <rect id="path57712" x="121.984" y="24.109" width="1.523" height="1.523" style="fill:rgb(135,135,135);fill-rule:nonzero;"/>
    <rect id="path57714" x="128.078" y="24.109" width="1.523" height="1.523" style="fill:rgb(135,135,135);fill-rule:nonzero;"/>
    <rect id="path57716" x="121.984" y="30.203" width="1.523" height="1.523" style="fill:rgb(135,135,135);fill-rule:nonzero;"/>
    <rect id="path57718" x="128.078" y="30.203" width="1.523" height="1.523" style="fill:rgb(135,135,135);fill-rule:nonzero;"/>
    <rect id="path57720" x="121.984" y="36.297" width="1.523" height="1.52" style="fill:rgb(135,135,135);fill-rule:nonzero;"/>
    <rect id="path57722" x="128.078" y="36.297" width="1.523" height="1.52" style="fill:rgb(135,135,135);fill-rule:nonzero;"/>
    <rect id="path57724" x="121.984" y="42.387" width="1.523" height="1.523" style="fill:rgb(135,135,135);fill-rule:nonzero;"/>
    <rect id="path57726" x="128.078" y="42.387" width="1.523" height="1.523" style="fill:rgb(135,135,135);fill-rule:nonzero;"/>
    <rect id="path57728" x="121.984" y="48.48" width="1.523" height="1.523" style="fill:rgb(135,135,135);fill-rule:nonzero;"/>
    <rect id="path57730" x="128.078" y="48.48" width="1.523" height="1.523" style="fill:rgb(135,135,135);fill-rule:nonzero;"/>
    <rect id="path57732" x="121.984" y="54.57" width="1.523" height="1.523" style="fill:rgb(135,135,135);fill-rule:nonzero;"/>
    <rect id="path57734" x="128.078" y="54.57" width="1.523" height="1.523" style="fill:rgb(135,135,135);fill-rule:nonzero;"/>
    <rect id="path57736" x="121.984" y="60.664" width="1.523" height="1.523" style="fill:rgb(135,135,135);fill-rule:nonzero;"/>
    <rect id="path57738" x="128.078" y="60.664" width="1.523" height="1.523" style="fill:rgb(135,135,135);fill-rule:nonzero;"/>
    <rect id="path57740" x="121.984" y="66.754" width="1.523" height="1.523" style="fill:rgb(135,135,135);fill-rule:nonzero;"/>
    <rect id="path57742" x="128.078" y="66.754" width="1.523" height="1.523" style="fill:rgb(135,135,135);fill-rule:nonzero;"/>
    <rect id="path57746" x="173.32" y="12.738" width="20.148" height="66.914" style="fill:rgb(15,15,15);fill-rule:nonzero;"/>
    <rect id="path57748" x="175.598" y="15.492" width="15.594" height="61.402" style="fill:rgb(12,12,12);fill-rule:nonzero;stroke:rgb(43,43,43);stroke-width:1px;stroke-linejoin:round;stroke-miterlimit:2;"/>
    <rect id="path57750" x="179.586" y="24.109" width="1.523" height="1.523" style="fill:rgb(135,135,135);fill-rule:nonzero;"/>
    <rect id="path57752" x="185.68" y="24.109" width="1.52" height="1.523" style="fill:rgb(135,135,135);fill-rule:nonzero;"/>
    <rect id="path57754" x="179.586" y="30.203" width="1.523" height="1.523" style="fill:rgb(135,135,135);fill-rule:nonzero;"/>
    <rect id="path57756" x="185.68" y="30.203" width="1.52" height="1.523" style="fill:rgb(135,135,135);fill-rule:nonzero;"/>
    <rect id="path57758" x="179.586" y="36.297" width="1.523" height="1.52" style="fill:rgb(135,135,135);fill-rule:nonzero;"/>
    <rect id="path57760" x="185.68" y="36.297" width="1.52" height="1.52" style="fill:rgb(135,135,135);fill-rule:nonzero;"/>
    <rect id="path57762" x="179.586" y="42.387" width="1.523" height="1.523" style="fill:rgb(135,135,135);fill-rule:nonzero;"/>
    <rect id="path57764" x="185.68" y="42.387" width="1.52" height="1.523" style="fill:rgb(135,135,135);fill-rule:nonzero;"/>
    <rect id="path57766" x="179.586" y="48.48" width="1.523" height="1.523" style="fill:rgb(135,135,135);fill-rule:nonzero;"/>
    <rect id="path57768" x="185.68" y="48.48" width="1.52" height="1.523" style="fill:rgb(135,135,135);fill-rule:nonzero;"/>
    <rect id="path57770" x="179.586" y="54.57" width="1.523" height="1.523" style="fill:rgb(135,135,135);fill-rule:nonzero;"/>
    <rect id="path57772" x="185.68" y="54.57" width="1.52" height="1.523" style="fill:rgb(135,135,135);fill-rule:nonzero;"/>
    <rect id="path57774" x="179.586" y="60.664" width="1.523" height="1.523" style="fill:rgb(135,135,135);fill-rule:nonzero;"/>
    <rect id="path57776" x="185.68" y="60.664" width="1.52" height="1.523" style="fill:rgb(135,135,135);fill-rule:nonzero;"/>
    <rect id="path57778" x="179.586" y="66.754" width="1.523" height="1.523" style="fill:rgb(135,135,135);fill-rule:nonzero;"/>
    <rect id="path57780" x="185.68" y="66.754" width="1.52" height="1.523" style="fill:rgb(135,135,135);fill-rule:nonzero;"/>
    <rect id="path57784" x="230.922" y="12.738" width="20.145" height="66.914" style="fill:rgb(15,15,15);fill-rule:nonzero;"/>
    <rect id="path57786" x="233.195" y="15.492" width="15.598" height="61.402" style="fill:rgb(12,12,12);fill-rule:nonzero;stroke:rgb(43,43,43);stroke-width:1px;stroke-linejoin:round;stroke-miterlimit:2;"/>
    <rect id="path57788" x="237.188" y="24.109" width="1.523" height="1.523" style="fill:rgb(135,135,135);fill-rule:nonzero;"/>
    <rect id="path57790" x="243.277" y="24.109" width="1.523" height="1.523" style="fill:rgb(135,135,135);fill-rule:nonzero;"/>
    <rect id="path57792" x="237.188" y="30.203" width="1.523" height="1.523" style="fill:rgb(135,135,135);fill-rule:nonzero;"/>
    <rect id="path57794" x="243.277" y="30.203" width="1.523" height="1.523" style="fill:rgb(135,135,135);fill-rule:nonzero;"/>
    <rect id="path57796" x="237.188" y="36.297" width="1.523" height="1.52" style="fill:rgb(135,135,135);fill-rule:nonzero;"/>
    <rect id="path57798" x="243.277" y="36.297" width="1.523" height="1.52" style="fill:rgb(135,135,135);fill-rule:nonzero;"/>
    <rect id="path57800" x="237.188" y="42.387" width="1.523" height="1.523" style="fill:rgb(135,135,135);fill-rule:nonzero;"/>
    <rect id="path57802" x="243.277" y="42.387" width="1.523" height="1.523" style="fill:rgb(135,135,135);fill-rule:nonzero;"/>
    <rect id="path57804" x="237.188" y="48.48" width="1.523" height="1.523" style="fill:rgb(135,135,135);fill-rule:nonzero;"/>
    <rect id="path57806" x="243.277" y="48.48" width="1.523" height="1.523" style="fill:rgb(135,135,135);fill-rule:nonzero;"/>
    <rect id="path57808" x="237.188" y="54.57" width="1.523" height="1.523" style="fill:rgb(135,135,135);fill-rule:nonzero;"/>
    <rect id="path57810" x="243.277" y="54.57" width="1.523" height="1.523" style="fill:rgb(135,135,135);fill-rule:nonzero;"/>
    <rect id="path57812" x="237.188" y="60.664" width="1.523" height="1.523" style="fill:rgb(135,135,135);fill-rule:nonzero;"/>
    <rect id="path57814" x="243.277" y="60.664" width="1.523" height="1.523" style="fill:rgb(135,135,135);fill-rule:nonzero;"/>
    <rect id="path57816" x="237.188" y="66.754" width="1.523" height="1.523" style="fill:rgb(135,135,135);fill-rule:nonzero;"/>
    <rect id="path57818" x="243.277" y="66.754" width="1.523" height="1.523" style="fill:rgb(135,135,135);fill-rule:nonzero;"/>
</svg>
