<?xml version="1.0" encoding="UTF-8" standalone="no"?>
<!DOCTYPE svg PUBLIC "-//W3C//DTD SVG 1.1//EN" "http://www.w3.org/Graphics/SVG/1.1/DTD/svg11.dtd">
<svg width="100%" height="100%" viewBox="0 0 500 80" version="1.1" xmlns="http://www.w3.org/2000/svg" xmlns:xlink="http://www.w3.org/1999/xlink" xml:space="preserve" xmlns:serif="http://www.serif.com/" style="fill-rule:evenodd;clip-rule:evenodd;stroke-linejoin:round;stroke-miterlimit:1.41421;">
    <g transform="matrix(0.92608,0,0,0.922578,116.296,-130.682)">
        <g id="pcb" transform="matrix(4.50413,0,0,1.16129,-125.624,-29.8395)">
            <rect x="0.01" y="147.67" width="119.87" height="74.67" style="fill:rgb(38,42,51);"/>
        </g>
        <g transform="matrix(1.23616,0,0,1.23616,-67.4171,-49.6534)">
            <g id="section">
                <g id="g563">
                    <circle id="circle868" cx="59.52" cy="214.15" r="3.99" style="fill:rgb(187,153,101);"/>
                    <circle id="circle868-2" cx="59.52" cy="214.15" r="1.86" style="fill:rgb(35,31,32);"/>
                    <path id="path884" d="M59.52,209.1C62.296,209.1 64.58,211.384 64.58,214.16C64.58,216.936 62.296,219.22 59.52,219.22C56.744,219.22 54.46,216.936 54.46,214.16C54.46,211.384 56.744,209.1 59.52,209.1M59.52,208.66C56.503,208.66 54.02,211.143 54.02,214.16C54.02,217.177 56.503,219.66 59.52,219.66C62.537,219.66 65.02,217.177 65.02,214.16C65.02,211.143 62.537,208.66 59.52,208.66Z" style="fill:white;fill-rule:nonzero;"/>
                </g>
            </g>
        </g>
        <g id="g5631" serif:id="g563" transform="matrix(1.23616,0,0,1.23616,-123.939,-49.6534)">
            <circle id="circle8681" serif:id="circle868" cx="59.52" cy="214.15" r="3.99" style="fill:rgb(187,153,101);"/>
            <circle id="circle868-21" serif:id="circle868-2" cx="59.52" cy="214.15" r="1.86" style="fill:rgb(35,31,32);"/>
            <path id="path8841" serif:id="path884" d="M59.52,209.1C62.296,209.1 64.58,211.384 64.58,214.16C64.58,216.936 62.296,219.22 59.52,219.22C56.744,219.22 54.46,216.936 54.46,214.16C54.46,211.384 56.744,209.1 59.52,209.1M59.52,208.66C56.503,208.66 54.02,211.143 54.02,214.16C54.02,217.177 56.503,219.66 59.52,219.66C62.537,219.66 65.02,217.177 65.02,214.16C65.02,211.143 62.537,208.66 59.52,208.66Z" style="fill:white;fill-rule:nonzero;"/>
        </g>
        <g id="g5632" serif:id="g563" transform="matrix(1.23616,0,0,1.23616,214.416,-48.9716)">
            <circle id="circle8682" serif:id="circle868" cx="59.52" cy="214.15" r="3.99" style="fill:rgb(187,153,101);"/>
            <circle id="circle868-22" serif:id="circle868-2" cx="59.52" cy="214.15" r="1.86" style="fill:rgb(35,31,32);"/>
            <path id="path8842" serif:id="path884" d="M59.52,209.1C62.296,209.1 64.58,211.384 64.58,214.16C64.58,216.936 62.296,219.22 59.52,219.22C56.744,219.22 54.46,216.936 54.46,214.16C54.46,211.384 56.744,209.1 59.52,209.1M59.52,208.66C56.503,208.66 54.02,211.143 54.02,214.16C54.02,217.177 56.503,219.66 59.52,219.66C62.537,219.66 65.02,217.177 65.02,214.16C65.02,211.143 62.537,208.66 59.52,208.66Z" style="fill:white;fill-rule:nonzero;"/>
        </g>
        <g id="g5633" serif:id="g563" transform="matrix(1.23616,0,0,1.23616,270.767,-48.9716)">
            <circle id="circle8683" serif:id="circle868" cx="59.52" cy="214.15" r="3.99" style="fill:rgb(187,153,101);"/>
            <circle id="circle868-23" serif:id="circle868-2" cx="59.52" cy="214.15" r="1.86" style="fill:rgb(35,31,32);"/>
            <path id="path8843" serif:id="path884" d="M59.52,209.1C62.296,209.1 64.58,211.384 64.58,214.16C64.58,216.936 62.296,219.22 59.52,219.22C56.744,219.22 54.46,216.936 54.46,214.16C54.46,211.384 56.744,209.1 59.52,209.1M59.52,208.66C56.503,208.66 54.02,211.143 54.02,214.16C54.02,217.177 56.503,219.66 59.52,219.66C62.537,219.66 65.02,217.177 65.02,214.16C65.02,211.143 62.537,208.66 59.52,208.66Z" style="fill:white;fill-rule:nonzero;"/>
        </g>
    </g>
    <g transform="matrix(0.158256,0,0,0.158311,160.416,-50.0374)">
        <g transform="matrix(60,0,0,60,143.834,762.28)">
            <path d="M0.09,-0.08L0.38,-0.08L0.44,-0.02L0.42,-0L0.05,-0L0.03,-0.02L0.09,-0.08ZM0,-0.05L0,-0.36L0.02,-0.38L0.04,-0.38L0.08,-0.34L0.08,-0.09L0.02,-0.03L0,-0.05ZM0,-0.42L0,-0.73L0.02,-0.75L0.08,-0.69L0.08,-0.44L0.04,-0.4L0.02,-0.4L0,-0.42Z" style="fill:white;fill-opacity:0.1;fill-rule:nonzero;"/>
        </g>
        <g transform="matrix(60,0,0,60,177.434,762.28)">
            <path d="M0.09,-0.08L0.38,-0.08L0.44,-0.02L0.42,-0L0.05,-0L0.03,-0.02L0.09,-0.08ZM0.05,-0.78L0.42,-0.78L0.44,-0.76L0.38,-0.7L0.09,-0.7L0.03,-0.76L0.05,-0.78ZM0.195,-0.69L0.275,-0.69L0.275,-0.6L0.25,-0.54L0.22,-0.54L0.195,-0.6L0.195,-0.69ZM0.195,-0.18L0.22,-0.24L0.25,-0.24L0.275,-0.18L0.275,-0.09L0.195,-0.09L0.195,-0.18Z" style="fill:white;fill-opacity:0.1;fill-rule:nonzero;"/>
        </g>
        <g transform="matrix(60,0,0,60,211.034,762.28)">
            <path d="M0,-0.05L0,-0.36L0.02,-0.38L0.04,-0.38L0.08,-0.34L0.08,-0.09L0.02,-0.03L0,-0.05ZM0.39,-0.09L0.39,-0.34L0.43,-0.38L0.45,-0.38L0.47,-0.358L0.47,-0.05L0.45,-0.03L0.39,-0.09ZM0,-0.42L0,-0.73L0.02,-0.75L0.08,-0.69L0.08,-0.44L0.04,-0.4L0.02,-0.4L0,-0.42ZM0.39,-0.44L0.39,-0.69L0.45,-0.75L0.47,-0.73L0.47,-0.42L0.45,-0.4L0.43,-0.4L0.39,-0.44ZM0.23,-0.5L0.23,-0.44L0.17,-0.44L0.09,-0.63L0.09,-0.69L0.15,-0.69L0.23,-0.5ZM0.24,-0.28L0.24,-0.34L0.3,-0.34L0.38,-0.15L0.38,-0.09L0.32,-0.09L0.24,-0.28Z" style="fill:white;fill-opacity:0.1;fill-rule:nonzero;"/>
        </g>
        <g transform="matrix(60,0,0,60,244.634,762.28)">
            <path d="M0.09,-0.08L0.38,-0.08L0.44,-0.02L0.42,-0L0.05,-0L0.03,-0.02L0.09,-0.08ZM0,-0.05L0,-0.36L0.02,-0.38L0.04,-0.38L0.08,-0.34L0.08,-0.09L0.02,-0.03L0,-0.05ZM0.39,-0.09L0.39,-0.34L0.43,-0.38L0.45,-0.38L0.47,-0.358L0.47,-0.05L0.45,-0.03L0.39,-0.09ZM0.086,-0.43L0.22,-0.43L0.23,-0.39L0.22,-0.35L0.09,-0.35L0.05,-0.39L0.086,-0.43ZM0.39,-0.44L0.39,-0.69L0.45,-0.75L0.47,-0.73L0.47,-0.42L0.45,-0.4L0.43,-0.4L0.39,-0.44ZM0.25,-0.43L0.38,-0.43L0.42,-0.39L0.38,-0.35L0.25,-0.35L0.24,-0.39L0.25,-0.43Z" style="fill:white;fill-opacity:0.1;fill-rule:nonzero;"/>
        </g>
        <g transform="matrix(60,0,0,60,278.234,762.28)">
            <path d="M0.09,-0.08L0.38,-0.08L0.44,-0.02L0.42,-0L0.05,-0L0.03,-0.02L0.09,-0.08ZM0,-0.05L0,-0.36L0.02,-0.38L0.04,-0.38L0.08,-0.34L0.08,-0.09L0.02,-0.03L0,-0.05ZM0.086,-0.43L0.22,-0.43L0.23,-0.39L0.22,-0.35L0.09,-0.35L0.05,-0.39L0.086,-0.43ZM0,-0.42L0,-0.73L0.02,-0.75L0.08,-0.69L0.08,-0.44L0.04,-0.4L0.02,-0.4L0,-0.42ZM0.05,-0.78L0.42,-0.78L0.44,-0.76L0.38,-0.7L0.09,-0.7L0.03,-0.76L0.05,-0.78ZM0.25,-0.43L0.38,-0.43L0.42,-0.39L0.38,-0.35L0.25,-0.35L0.24,-0.39L0.25,-0.43Z" style="fill:white;fill-opacity:0.1;fill-rule:nonzero;"/>
        </g>
        <g transform="matrix(60,0,0,60,311.834,762.28)">
            <path d="M0,-0.05L0,-0.36L0.02,-0.38L0.04,-0.38L0.08,-0.34L0.08,-0.09L0.02,-0.03L0,-0.05ZM0.39,-0.09L0.39,-0.34L0.43,-0.38L0.45,-0.38L0.47,-0.358L0.47,-0.05L0.45,-0.03L0.39,-0.09ZM0,-0.42L0,-0.73L0.02,-0.75L0.08,-0.69L0.08,-0.44L0.04,-0.4L0.02,-0.4L0,-0.42ZM0.39,-0.44L0.39,-0.69L0.45,-0.75L0.47,-0.73L0.47,-0.42L0.45,-0.4L0.43,-0.4L0.39,-0.44ZM0.23,-0.5L0.23,-0.44L0.17,-0.44L0.09,-0.63L0.09,-0.69L0.15,-0.69L0.23,-0.5ZM0.24,-0.28L0.24,-0.34L0.3,-0.34L0.38,-0.15L0.38,-0.09L0.32,-0.09L0.24,-0.28Z" style="fill:white;fill-opacity:0.1;fill-rule:nonzero;"/>
        </g>
        <g transform="matrix(60,0,0,60,345.434,762.28)">
            <path d="M0.09,-0.08L0.38,-0.08L0.44,-0.02L0.42,-0L0.05,-0L0.03,-0.02L0.09,-0.08ZM0,-0.05L0,-0.36L0.02,-0.38L0.04,-0.38L0.08,-0.34L0.08,-0.09L0.02,-0.03L0,-0.05ZM0.39,-0.09L0.39,-0.34L0.43,-0.38L0.45,-0.38L0.47,-0.358L0.47,-0.05L0.45,-0.03L0.39,-0.09ZM0.086,-0.43L0.22,-0.43L0.23,-0.39L0.22,-0.35L0.09,-0.35L0.05,-0.39L0.086,-0.43ZM0,-0.42L0,-0.73L0.02,-0.75L0.08,-0.69L0.08,-0.44L0.04,-0.4L0.02,-0.4L0,-0.42ZM0.25,-0.43L0.38,-0.43L0.42,-0.39L0.38,-0.35L0.25,-0.35L0.24,-0.39L0.25,-0.43Z" style="fill:white;fill-opacity:0.1;fill-rule:nonzero;"/>
        </g>
        <g transform="matrix(60,0,0,60,379.034,762.28)">
            <path d="M0.09,-0.08L0.38,-0.08L0.44,-0.02L0.42,-0L0.05,-0L0.03,-0.02L0.09,-0.08ZM0,-0.05L0,-0.36L0.02,-0.38L0.04,-0.38L0.08,-0.34L0.08,-0.09L0.02,-0.03L0,-0.05ZM0.086,-0.43L0.22,-0.43L0.23,-0.39L0.22,-0.35L0.09,-0.35L0.05,-0.39L0.086,-0.43ZM0,-0.42L0,-0.73L0.02,-0.75L0.08,-0.69L0.08,-0.44L0.04,-0.4L0.02,-0.4L0,-0.42ZM0.05,-0.78L0.42,-0.78L0.44,-0.76L0.38,-0.7L0.09,-0.7L0.03,-0.76L0.05,-0.78ZM0.25,-0.43L0.38,-0.43L0.42,-0.39L0.38,-0.35L0.25,-0.35L0.24,-0.39L0.25,-0.43Z" style="fill:white;fill-opacity:0.1;fill-rule:nonzero;"/>
        </g>
        <g transform="matrix(60,0,0,60,412.634,762.28)">
            <path d="M0,-0.05L0,-0.36L0.02,-0.38L0.04,-0.38L0.08,-0.34L0.08,-0.09L0.02,-0.03L0,-0.05ZM0.086,-0.43L0.22,-0.43L0.23,-0.39L0.22,-0.35L0.09,-0.35L0.05,-0.39L0.086,-0.43ZM0,-0.42L0,-0.73L0.02,-0.75L0.08,-0.69L0.08,-0.44L0.04,-0.4L0.02,-0.4L0,-0.42ZM0.39,-0.44L0.39,-0.69L0.45,-0.75L0.47,-0.73L0.47,-0.42L0.45,-0.4L0.43,-0.4L0.39,-0.44ZM0.05,-0.78L0.42,-0.78L0.44,-0.76L0.38,-0.7L0.09,-0.7L0.03,-0.76L0.05,-0.78ZM0.25,-0.43L0.38,-0.43L0.42,-0.39L0.38,-0.35L0.25,-0.35L0.24,-0.39L0.25,-0.43ZM0.24,-0.28L0.24,-0.34L0.3,-0.34L0.38,-0.15L0.38,-0.09L0.32,-0.09L0.24,-0.28Z" style="fill:white;fill-opacity:0.1;fill-rule:nonzero;"/>
        </g>
        <g transform="matrix(60,0,0,60,446.234,762.28)">
            <path d="M0.09,-0.08L0.38,-0.08L0.44,-0.02L0.42,-0L0.05,-0L0.03,-0.02L0.09,-0.08ZM0,-0.05L0,-0.36L0.02,-0.38L0.04,-0.38L0.08,-0.34L0.08,-0.09L0.02,-0.03L0,-0.05ZM0.39,-0.09L0.39,-0.34L0.43,-0.38L0.45,-0.38L0.47,-0.358L0.47,-0.05L0.45,-0.03L0.39,-0.09ZM0,-0.42L0,-0.73L0.02,-0.75L0.08,-0.69L0.08,-0.44L0.04,-0.4L0.02,-0.4L0,-0.42ZM0.05,-0.78L0.42,-0.78L0.44,-0.76L0.38,-0.7L0.09,-0.7L0.03,-0.76L0.05,-0.78ZM0.25,-0.43L0.38,-0.43L0.42,-0.39L0.38,-0.35L0.25,-0.35L0.24,-0.39L0.25,-0.43Z" style="fill:white;fill-opacity:0.1;fill-rule:nonzero;"/>
        </g>
        <g transform="matrix(60,0,0,60,513.434,762.28)">
            <path d="M0,-0.05L0,-0.36L0.02,-0.38L0.04,-0.38L0.08,-0.34L0.08,-0.09L0.02,-0.03L0,-0.05ZM0.086,-0.43L0.22,-0.43L0.23,-0.39L0.22,-0.35L0.09,-0.35L0.05,-0.39L0.086,-0.43ZM0,-0.42L0,-0.73L0.02,-0.75L0.08,-0.69L0.08,-0.44L0.04,-0.4L0.02,-0.4L0,-0.42ZM0.39,-0.44L0.39,-0.69L0.45,-0.75L0.47,-0.73L0.47,-0.42L0.45,-0.4L0.43,-0.4L0.39,-0.44ZM0.05,-0.78L0.42,-0.78L0.44,-0.76L0.38,-0.7L0.09,-0.7L0.03,-0.76L0.05,-0.78ZM0.25,-0.43L0.38,-0.43L0.42,-0.39L0.38,-0.35L0.25,-0.35L0.24,-0.39L0.25,-0.43ZM0.24,-0.28L0.24,-0.34L0.3,-0.34L0.38,-0.15L0.38,-0.09L0.32,-0.09L0.24,-0.28Z" style="fill:white;fill-opacity:0.1;fill-rule:nonzero;"/>
        </g>
        <g transform="matrix(60,0,0,60,547.034,762.28)">
            <path d="M0.09,-0.08L0.38,-0.08L0.44,-0.02L0.42,-0L0.05,-0L0.03,-0.02L0.09,-0.08ZM0,-0.05L0,-0.36L0.02,-0.38L0.04,-0.38L0.08,-0.34L0.08,-0.09L0.02,-0.03L0,-0.05ZM0.086,-0.43L0.22,-0.43L0.23,-0.39L0.22,-0.35L0.09,-0.35L0.05,-0.39L0.086,-0.43ZM0,-0.42L0,-0.73L0.02,-0.75L0.08,-0.69L0.08,-0.44L0.04,-0.4L0.02,-0.4L0,-0.42ZM0.05,-0.78L0.42,-0.78L0.44,-0.76L0.38,-0.7L0.09,-0.7L0.03,-0.76L0.05,-0.78ZM0.25,-0.43L0.38,-0.43L0.42,-0.39L0.38,-0.35L0.25,-0.35L0.24,-0.39L0.25,-0.43Z" style="fill:white;fill-opacity:0.1;fill-rule:nonzero;"/>
        </g>
        <g transform="matrix(60,0,0,60,580.634,762.28)">
            <path d="M0.09,-0.08L0.38,-0.08L0.44,-0.02L0.42,-0L0.05,-0L0.03,-0.02L0.09,-0.08ZM0.39,-0.09L0.39,-0.34L0.43,-0.38L0.45,-0.38L0.47,-0.358L0.47,-0.05L0.45,-0.03L0.39,-0.09ZM0.086,-0.43L0.22,-0.43L0.23,-0.39L0.22,-0.35L0.09,-0.35L0.05,-0.39L0.086,-0.43ZM0,-0.42L0,-0.73L0.02,-0.75L0.08,-0.69L0.08,-0.44L0.04,-0.4L0.02,-0.4L0,-0.42ZM0.05,-0.78L0.42,-0.78L0.44,-0.76L0.38,-0.7L0.09,-0.7L0.03,-0.76L0.05,-0.78ZM0.25,-0.43L0.38,-0.43L0.42,-0.39L0.38,-0.35L0.25,-0.35L0.24,-0.39L0.25,-0.43Z" style="fill:white;fill-opacity:0.1;fill-rule:nonzero;"/>
        </g>
        <g transform="matrix(60,0,0,60,614.234,762.28)">
            <path d="M0.09,-0.08L0.38,-0.08L0.44,-0.02L0.42,-0L0.05,-0L0.03,-0.02L0.09,-0.08ZM0,-0.05L0,-0.36L0.02,-0.38L0.04,-0.38L0.08,-0.34L0.08,-0.09L0.02,-0.03L0,-0.05ZM0.086,-0.43L0.22,-0.43L0.23,-0.39L0.22,-0.35L0.09,-0.35L0.05,-0.39L0.086,-0.43ZM0,-0.42L0,-0.73L0.02,-0.75L0.08,-0.69L0.08,-0.44L0.04,-0.4L0.02,-0.4L0,-0.42ZM0.05,-0.78L0.42,-0.78L0.44,-0.76L0.38,-0.7L0.09,-0.7L0.03,-0.76L0.05,-0.78ZM0.25,-0.43L0.38,-0.43L0.42,-0.39L0.38,-0.35L0.25,-0.35L0.24,-0.39L0.25,-0.43Z" style="fill:white;fill-opacity:0.1;fill-rule:nonzero;"/>
        </g>
        <g transform="matrix(60,0,0,60,647.834,762.28)">
            <path d="M0,-0.05L0,-0.36L0.02,-0.38L0.04,-0.38L0.08,-0.34L0.08,-0.09L0.02,-0.03L0,-0.05ZM0.39,-0.09L0.39,-0.34L0.43,-0.38L0.45,-0.38L0.47,-0.358L0.47,-0.05L0.45,-0.03L0.39,-0.09ZM0.086,-0.43L0.22,-0.43L0.23,-0.39L0.22,-0.35L0.09,-0.35L0.05,-0.39L0.086,-0.43ZM0,-0.42L0,-0.73L0.02,-0.75L0.08,-0.69L0.08,-0.44L0.04,-0.4L0.02,-0.4L0,-0.42ZM0.39,-0.44L0.39,-0.69L0.45,-0.75L0.47,-0.73L0.47,-0.42L0.45,-0.4L0.43,-0.4L0.39,-0.44ZM0.05,-0.78L0.42,-0.78L0.44,-0.76L0.38,-0.7L0.09,-0.7L0.03,-0.76L0.05,-0.78ZM0.25,-0.43L0.38,-0.43L0.42,-0.39L0.38,-0.35L0.25,-0.35L0.24,-0.39L0.25,-0.43Z" style="fill:white;fill-opacity:0.1;fill-rule:nonzero;"/>
        </g>
        <g transform="matrix(60,0,0,60,681.434,762.28)">
            <path d="M0,-0.05L0,-0.36L0.02,-0.38L0.04,-0.38L0.08,-0.34L0.08,-0.09L0.02,-0.03L0,-0.05ZM0.086,-0.43L0.22,-0.43L0.23,-0.39L0.22,-0.35L0.09,-0.35L0.05,-0.39L0.086,-0.43ZM0,-0.42L0,-0.73L0.02,-0.75L0.08,-0.69L0.08,-0.44L0.04,-0.4L0.02,-0.4L0,-0.42ZM0.39,-0.44L0.39,-0.69L0.45,-0.75L0.47,-0.73L0.47,-0.42L0.45,-0.4L0.43,-0.4L0.39,-0.44ZM0.05,-0.78L0.42,-0.78L0.44,-0.76L0.38,-0.7L0.09,-0.7L0.03,-0.76L0.05,-0.78ZM0.25,-0.43L0.38,-0.43L0.42,-0.39L0.38,-0.35L0.25,-0.35L0.24,-0.39L0.25,-0.43ZM0.24,-0.28L0.24,-0.34L0.3,-0.34L0.38,-0.15L0.38,-0.09L0.32,-0.09L0.24,-0.28Z" style="fill:white;fill-opacity:0.1;fill-rule:nonzero;"/>
        </g>
        <g transform="matrix(60,0,0,60,715.034,762.28)">
            <path d="M0.09,-0.08L0.38,-0.08L0.44,-0.02L0.42,-0L0.05,-0L0.03,-0.02L0.09,-0.08ZM0,-0.05L0,-0.36L0.02,-0.38L0.04,-0.38L0.08,-0.34L0.08,-0.09L0.02,-0.03L0,-0.05ZM0,-0.42L0,-0.73L0.02,-0.75L0.08,-0.69L0.08,-0.44L0.04,-0.4L0.02,-0.4L0,-0.42ZM0.05,-0.78L0.42,-0.78L0.44,-0.76L0.38,-0.7L0.09,-0.7L0.03,-0.76L0.05,-0.78Z" style="fill:white;fill-opacity:0.1;fill-rule:nonzero;"/>
        </g>
        <g transform="matrix(60,0,0,60,748.634,762.28)">
            <path d="M0,-0.05L0,-0.36L0.02,-0.38L0.04,-0.38L0.08,-0.34L0.08,-0.09L0.02,-0.03L0,-0.05ZM0.39,-0.09L0.39,-0.34L0.43,-0.38L0.45,-0.38L0.47,-0.358L0.47,-0.05L0.45,-0.03L0.39,-0.09ZM0.086,-0.43L0.22,-0.43L0.23,-0.39L0.22,-0.35L0.09,-0.35L0.05,-0.39L0.086,-0.43ZM0,-0.42L0,-0.73L0.02,-0.75L0.08,-0.69L0.08,-0.44L0.04,-0.4L0.02,-0.4L0,-0.42ZM0.39,-0.44L0.39,-0.69L0.45,-0.75L0.47,-0.73L0.47,-0.42L0.45,-0.4L0.43,-0.4L0.39,-0.44ZM0.25,-0.43L0.38,-0.43L0.42,-0.39L0.38,-0.35L0.25,-0.35L0.24,-0.39L0.25,-0.43Z" style="fill:white;fill-opacity:0.1;fill-rule:nonzero;"/>
        </g>
        <g transform="matrix(60,0,0,60,815.834,762.28)">
            <path d="M0,-0.05L0,-0.36L0.02,-0.38L0.04,-0.38L0.08,-0.34L0.08,-0.09L0.02,-0.03L0,-0.05ZM0.39,-0.09L0.39,-0.34L0.43,-0.38L0.45,-0.38L0.47,-0.358L0.47,-0.05L0.45,-0.03L0.39,-0.09ZM0,-0.42L0,-0.73L0.02,-0.75L0.08,-0.69L0.08,-0.44L0.04,-0.4L0.02,-0.4L0,-0.42ZM0.39,-0.44L0.39,-0.69L0.45,-0.75L0.47,-0.73L0.47,-0.42L0.45,-0.4L0.43,-0.4L0.39,-0.44ZM0.05,-0.78L0.42,-0.78L0.44,-0.76L0.38,-0.7L0.09,-0.7L0.03,-0.76L0.05,-0.78ZM0.195,-0.69L0.275,-0.69L0.275,-0.6L0.25,-0.54L0.22,-0.54L0.195,-0.6L0.195,-0.69Z" style="fill:white;fill-opacity:0.1;fill-rule:nonzero;"/>
        </g>
        <g transform="matrix(60,0,0,60,849.434,762.28)">
            <path d="M0.09,-0.08L0.38,-0.08L0.44,-0.02L0.42,-0L0.05,-0L0.03,-0.02L0.09,-0.08ZM0,-0.05L0,-0.36L0.02,-0.38L0.04,-0.38L0.08,-0.34L0.08,-0.09L0.02,-0.03L0,-0.05ZM0.39,-0.09L0.39,-0.34L0.43,-0.38L0.45,-0.38L0.47,-0.358L0.47,-0.05L0.45,-0.03L0.39,-0.09ZM0,-0.42L0,-0.73L0.02,-0.75L0.08,-0.69L0.08,-0.44L0.04,-0.4L0.02,-0.4L0,-0.42ZM0.39,-0.44L0.39,-0.69L0.45,-0.75L0.47,-0.73L0.47,-0.42L0.45,-0.4L0.43,-0.4L0.39,-0.44ZM0.05,-0.78L0.42,-0.78L0.44,-0.76L0.38,-0.7L0.09,-0.7L0.03,-0.76L0.05,-0.78Z" style="fill:white;fill-opacity:0.1;fill-rule:nonzero;"/>
        </g>
        <g transform="matrix(60,0,0,60,883.034,762.28)">
            <path d="M0.09,-0.08L0.38,-0.08L0.44,-0.02L0.42,-0L0.05,-0L0.03,-0.02L0.09,-0.08ZM0,-0.05L0,-0.36L0.02,-0.38L0.04,-0.38L0.08,-0.34L0.08,-0.09L0.02,-0.03L0,-0.05ZM0.39,-0.09L0.39,-0.34L0.43,-0.38L0.45,-0.38L0.47,-0.358L0.47,-0.05L0.45,-0.03L0.39,-0.09ZM0.086,-0.43L0.22,-0.43L0.23,-0.39L0.22,-0.35L0.09,-0.35L0.05,-0.39L0.086,-0.43ZM0.39,-0.44L0.39,-0.69L0.45,-0.75L0.47,-0.73L0.47,-0.42L0.45,-0.4L0.43,-0.4L0.39,-0.44ZM0.25,-0.43L0.38,-0.43L0.42,-0.39L0.38,-0.35L0.25,-0.35L0.24,-0.39L0.25,-0.43Z" style="fill:white;fill-opacity:0.1;fill-rule:nonzero;"/>
        </g>
        <g transform="matrix(60,0,0,60,916.634,762.28)">
            <path d="M0.09,-0.08L0.38,-0.08L0.44,-0.02L0.42,-0L0.05,-0L0.03,-0.02L0.09,-0.08ZM0,-0.05L0,-0.36L0.02,-0.38L0.04,-0.38L0.08,-0.34L0.08,-0.09L0.02,-0.03L0,-0.05ZM0.39,-0.09L0.39,-0.34L0.43,-0.38L0.45,-0.38L0.47,-0.358L0.47,-0.05L0.45,-0.03L0.39,-0.09ZM0,-0.42L0,-0.73L0.02,-0.75L0.08,-0.69L0.08,-0.44L0.04,-0.4L0.02,-0.4L0,-0.42ZM0.39,-0.44L0.39,-0.69L0.45,-0.75L0.47,-0.73L0.47,-0.42L0.45,-0.4L0.43,-0.4L0.39,-0.44Z" style="fill:white;fill-opacity:0.1;fill-rule:nonzero;"/>
        </g>
        <g transform="matrix(60,0,0,60,950.234,762.28)">
            <path d="M0.09,-0.08L0.38,-0.08L0.44,-0.02L0.42,-0L0.05,-0L0.03,-0.02L0.09,-0.08ZM0,-0.05L0,-0.36L0.02,-0.38L0.04,-0.38L0.08,-0.34L0.08,-0.09L0.02,-0.03L0,-0.05ZM0,-0.42L0,-0.73L0.02,-0.75L0.08,-0.69L0.08,-0.44L0.04,-0.4L0.02,-0.4L0,-0.42Z" style="fill:white;fill-opacity:0.1;fill-rule:nonzero;"/>
        </g>
        <g transform="matrix(60,0,0,60,983.834,762.28)">
            <path d="M0,-0.05L0,-0.36L0.02,-0.38L0.04,-0.38L0.08,-0.34L0.08,-0.09L0.02,-0.03L0,-0.05ZM0.39,-0.09L0.39,-0.34L0.43,-0.38L0.45,-0.38L0.47,-0.358L0.47,-0.05L0.45,-0.03L0.39,-0.09ZM0.086,-0.43L0.22,-0.43L0.23,-0.39L0.22,-0.35L0.09,-0.35L0.05,-0.39L0.086,-0.43ZM0,-0.42L0,-0.73L0.02,-0.75L0.08,-0.69L0.08,-0.44L0.04,-0.4L0.02,-0.4L0,-0.42ZM0.39,-0.44L0.39,-0.69L0.45,-0.75L0.47,-0.73L0.47,-0.42L0.45,-0.4L0.43,-0.4L0.39,-0.44ZM0.05,-0.78L0.42,-0.78L0.44,-0.76L0.38,-0.7L0.09,-0.7L0.03,-0.76L0.05,-0.78ZM0.25,-0.43L0.38,-0.43L0.42,-0.39L0.38,-0.35L0.25,-0.35L0.24,-0.39L0.25,-0.43Z" style="fill:white;fill-opacity:0.1;fill-rule:nonzero;"/>
        </g>
        <g transform="matrix(60,0,0,60,1017.43,762.28)">
            <path d="M0,-0.05L0,-0.36L0.02,-0.38L0.04,-0.38L0.08,-0.34L0.08,-0.09L0.02,-0.03L0,-0.05ZM0.086,-0.43L0.22,-0.43L0.23,-0.39L0.22,-0.35L0.09,-0.35L0.05,-0.39L0.086,-0.43ZM0,-0.42L0,-0.73L0.02,-0.75L0.08,-0.69L0.08,-0.44L0.04,-0.4L0.02,-0.4L0,-0.42ZM0.39,-0.44L0.39,-0.69L0.45,-0.75L0.47,-0.73L0.47,-0.42L0.45,-0.4L0.43,-0.4L0.39,-0.44ZM0.05,-0.78L0.42,-0.78L0.44,-0.76L0.38,-0.7L0.09,-0.7L0.03,-0.76L0.05,-0.78ZM0.25,-0.43L0.38,-0.43L0.42,-0.39L0.38,-0.35L0.25,-0.35L0.24,-0.39L0.25,-0.43ZM0.24,-0.28L0.24,-0.34L0.3,-0.34L0.38,-0.15L0.38,-0.09L0.32,-0.09L0.24,-0.28Z" style="fill:white;fill-opacity:0.1;fill-rule:nonzero;"/>
        </g>
    </g>
    <g id="Logo" transform="matrix(1.4524,0,0,1.45291,75.1968,-501.018)">
        <g transform="matrix(0.117658,0,0,0.117658,104.452,347.688)">
            <path d="M232.321,164.268C231.77,162.861 231.071,161.781 230.588,160.001L230.604,160.001C230.57,160.001 230.548,159.927 230.516,159.852C230.454,159.659 230.394,159.499 230.343,159.304C230.246,158.939 230.154,158.545 230.09,158.125C230.047,156.045 231.962,155.333 232.036,152.942C232.117,150.369 230.56,149.044 230.09,148.701C230.07,148.673 230.053,148.647 230.034,148.619C230.046,148.582 230.054,148.551 230.065,148.515C233.058,146.082 231.755,142.777 231.755,142.777C231.119,142.439 230.442,142.227 229.958,141.797C225.621,137.934 225.352,135.161 228.762,130.509C229.628,129.324 230.508,128.134 231.229,126.86C232.99,123.743 232.588,122.261 229.419,120.493C227.139,119.222 224.676,118.275 222.431,116.948C216.035,113.17 210.597,108.427 207.37,101.774C209.541,97.902 209.541,97.902 208.674,95.433C207.883,96.298 207.147,97.105 205.986,98.377C205.986,95.328 206.28,92.998 205.903,90.782C205.536,88.626 205.053,85.99 203.622,84.604C198.405,79.559 195.447,73.312 192.702,66.808C190.673,62.002 188.506,57.148 184.531,53.572C182.531,51.772 180.057,50.5 177.789,48.985C177.789,47.631 177.806,46.332 177.783,45.034C177.764,43.737 177.821,42.424 177.647,41.144C176.945,36.031 173.307,33.58 168.243,34.596C165.062,35.234 161.858,35.834 158.638,36.159C156.75,36.349 155.054,36.287 155.413,32.727L160.781,32.727C159.677,32.727 159.266,31.183 158.714,30.958C156.506,30.066 154.669,30.598 153.615,32.354C152.365,34.431 153.638,35.94 155.119,36.909C156.392,37.741 158.123,38.35 159.611,38.274C162.845,38.107 166.047,37.432 169.269,36.978C172.069,36.584 173.72,37.565 174.279,40.244C174.545,41.522 174.326,42.902 174.326,43.805C170.606,42.422 167.373,40.436 163.979,40.115C156.547,39.409 149.023,39.203 141.566,39.504C138.482,39.628 135.082,41.015 132.517,42.813C127.97,46.001 123.076,47.852 117.744,48.951C115.195,49.477 112.638,50.1 110.194,50.981C105.505,52.67 101.568,55.323 98.664,59.611C97.069,61.965 94.828,64.056 92.476,65.687C87.885,68.871 83.475,72.111 80.332,76.874C78.62,79.47 76.208,81.086 72.493,79.987C71.389,75.743 67.623,75.076 63.866,74.564C62.102,74.322 60.241,74.244 58.493,74.524C48.246,76.167 38.939,80.084 31.68,87.598C25.115,94.395 25.743,97.963 28.941,103.8C31.004,107.566 31.072,111.235 28.662,114.889C26.788,117.731 26.092,120.902 26.591,124.243C27.875,132.852 30.663,140.463 40,143.494C40.615,143.692 41.156,144.101 41.748,144.375C43.873,145.359 44.893,146.967 45.113,149.346C45.257,150.886 45.604,152.703 46.542,153.825C52.787,161.279 66.974,162.328 71.583,151.874C71.772,151.442 72.207,151.118 72.528,150.745C72.833,150.879 73.137,151.011 73.442,151.144C73.172,152.492 72.903,153.838 72.632,155.186C72.281,156.936 71.428,158.758 71.671,160.421C72.586,166.685 73.155,173.137 75.174,179.069C77.626,186.273 83.704,193.656 93.936,192.266C97.485,191.783 100.718,192.657 103.754,194.5C105.008,195.26 106.411,195.772 107.666,196.527C110.887,198.47 114.163,198.425 117.523,196.991C119.547,196.128 121.575,195.265 123.854,194.293C122.694,198.334 121.576,201.887 120.665,205.49C119.329,210.777 117.034,214.942 110.724,214.97C110.609,214.97 110.496,215.174 110.243,215.411C110.716,216.796 111.218,218.266 111.689,219.645C108.259,224.721 102.301,224.933 97.738,227.526C106.687,227.608 113.128,223.272 113.917,216.964C118.827,215.382 121.722,211.93 123.15,207.043C123.927,204.384 124.761,201.723 125.822,199.164C127.568,194.955 130.614,192.445 135.228,192.331C134.926,195.551 134.649,198.5 134.373,201.444C127.686,202.93 127.554,203.093 127.839,209.759C126.256,211.028 124.601,212.355 122.154,214.316C128.38,212.888 129.59,211.363 130.179,205.105C131.117,204.78 132.141,204.306 133.218,204.07C137.227,203.195 137.328,203.211 136.9,199.033C136.649,196.588 137.639,195.037 140.063,193.369C140.514,195.135 140.955,196.457 141.178,197.814C141.494,199.737 141.725,201.681 141.865,203.624C142.382,211.028 141.805,218.267 138.408,225.054C134.249,233.367 130.074,241.676 125.995,250.027C124.821,252.431 123.513,254.261 120.823,255.46C116.558,257.367 113.402,262.016 113.066,266.292C128.324,269.241 139.378,273.245 154.106,285.125C163.753,292.91 173.968,296.434 183.505,297.581C183.508,297.577 193.753,283.87 203.258,265.023C203.017,264.658 202.774,264.295 202.535,263.928C196.285,254.45 191.002,245.336 189.486,241.407C186.633,234.012 185.648,226.748 187.354,218.941C189.337,209.858 190.987,200.735 195.115,192.269C197.527,187.319 201.265,184.558 206.634,183.411C213,182.051 219.323,180.374 225.574,178.543C232.28,176.577 234.882,170.79 232.321,164.268Z" style="fill:white;fill-opacity:0.07;fill-rule:nonzero;stroke:rgb(0,4,8);stroke-opacity:0.07;stroke-width:1.17px;"/>
        </g>
        <g transform="matrix(0.269984,0,0,0.269984,71.5398,322.885)">
            <g transform="matrix(48,0,0,48,164.662,153.699)">
                <path d="M0.151,-0.42L0.149,-0.429L0.138,-0.424L0.134,-0.419L0.129,-0.418L0.122,-0.413L0.123,-0.401L0.136,-0.369L0.135,-0.361L0.124,-0.346L0.114,-0.343L0.098,-0.345L0.09,-0.349L0.089,-0.351L0.078,-0.353L0.073,-0.352L0.068,-0.348L0.062,-0.335L0.058,-0.318L0.05,-0.298L0.054,-0.289L0.076,-0.28L0.089,-0.273L0.093,-0.266L0.094,-0.247L0.09,-0.238L0.084,-0.233L0.054,-0.219L0.051,-0.216L0.05,-0.213L0.052,-0.203L0.064,-0.173L0.065,-0.166L0.071,-0.158L0.082,-0.157L0.104,-0.164L0.117,-0.166L0.124,-0.162L0.129,-0.155L0.138,-0.146L0.134,-0.132L0.12,-0.1L0.127,-0.091L0.137,-0.084L0.17,-0.068L0.176,-0.068L0.182,-0.072L0.184,-0.075L0.184,-0.079L0.187,-0.08L0.192,-0.089L0.203,-0.102L0.206,-0.104L0.232,-0.104L0.236,-0.101L0.24,-0.081L0.245,-0.073L0.246,-0.061L0.252,-0.054L0.269,-0.054L0.303,-0.062L0.311,-0.066L0.313,-0.069L0.314,-0.074L0.31,-0.099L0.31,-0.109L0.313,-0.114L0.324,-0.121L0.33,-0.122L0.338,-0.127L0.359,-0.116L0.37,-0.105L0.374,-0.103L0.378,-0.103L0.383,-0.106L0.392,-0.117L0.396,-0.12L0.397,-0.128L0.4,-0.127L0.417,-0.148L0.417,-0.153L0.407,-0.166L0.391,-0.181L0.389,-0.185L0.39,-0.194L0.395,-0.21L0.4,-0.216L0.412,-0.218L0.42,-0.222L0.424,-0.22L0.441,-0.222L0.447,-0.23L0.448,-0.236L0.447,-0.24L0.447,-0.278L0.44,-0.277L0.443,-0.285L0.436,-0.288L0.421,-0.29L0.404,-0.29L0.4,-0.291L0.396,-0.297L0.394,-0.306L0.39,-0.314L0.389,-0.319L0.39,-0.324L0.406,-0.345L0.413,-0.351L0.417,-0.358L0.415,-0.366L0.4,-0.383L0.398,-0.388L0.391,-0.393L0.382,-0.403L0.378,-0.405L0.375,-0.402L0.355,-0.393L0.345,-0.383L0.332,-0.385L0.322,-0.388L0.312,-0.396L0.31,-0.399L0.314,-0.428L0.313,-0.441L0.309,-0.446L0.288,-0.453L0.271,-0.452L0.257,-0.456L0.25,-0.453L0.244,-0.44L0.238,-0.413L0.236,-0.41L0.215,-0.404L0.207,-0.403L0.202,-0.408L0.186,-0.431L0.174,-0.44L0.161,-0.437L0.15,-0.43L0.152,-0.422L0.151,-0.42ZM0.508,-0.495L0.51,-0.501L0.521,-0.509L0.532,-0.512L0.542,-0.512L0.547,-0.516L0.55,-0.53L0.55,-0.554L0.545,-0.554L0.546,-0.558L0.545,-0.56L0.54,-0.562L0.532,-0.562L0.53,-0.561L0.52,-0.561L0.517,-0.563L0.51,-0.581L0.512,-0.588L0.524,-0.6L0.527,-0.605L0.526,-0.614L0.521,-0.617L0.519,-0.624L0.511,-0.635L0.505,-0.641L0.497,-0.641L0.476,-0.629L0.463,-0.632L0.458,-0.635L0.455,-0.641L0.455,-0.649L0.453,-0.653L0.456,-0.656L0.457,-0.659L0.454,-0.669L0.448,-0.673L0.424,-0.679L0.418,-0.679L0.411,-0.674L0.403,-0.658L0.404,-0.654L0.403,-0.65L0.396,-0.64L0.395,-0.643L0.396,-0.644L0.395,-0.645L0.385,-0.642L0.379,-0.643L0.359,-0.667L0.349,-0.665L0.344,-0.662L0.343,-0.66L0.328,-0.653L0.321,-0.646L0.324,-0.632L0.331,-0.616L0.33,-0.61L0.324,-0.605L0.323,-0.601L0.306,-0.596L0.306,-0.601L0.297,-0.605L0.291,-0.606L0.282,-0.602L0.282,-0.596L0.269,-0.571L0.27,-0.563L0.276,-0.558L0.298,-0.55L0.301,-0.546L0.302,-0.537L0.3,-0.527L0.297,-0.523L0.273,-0.513L0.274,-0.494L0.277,-0.485L0.283,-0.474L0.288,-0.468L0.318,-0.475L0.326,-0.467L0.331,-0.46L0.326,-0.442L0.324,-0.441L0.321,-0.436L0.32,-0.43L0.327,-0.421L0.344,-0.412L0.352,-0.406L0.36,-0.407L0.364,-0.41L0.37,-0.421L0.372,-0.422L0.377,-0.429L0.384,-0.433L0.395,-0.429L0.399,-0.425L0.411,-0.399L0.414,-0.397L0.422,-0.396L0.446,-0.4L0.454,-0.403L0.456,-0.406L0.454,-0.424L0.454,-0.436L0.465,-0.445L0.473,-0.447L0.487,-0.438L0.488,-0.44L0.486,-0.443L0.487,-0.445L0.491,-0.443L0.492,-0.435L0.496,-0.432L0.502,-0.432L0.509,-0.437L0.519,-0.447L0.527,-0.458L0.529,-0.465L0.528,-0.468L0.511,-0.484L0.508,-0.489L0.508,-0.495ZM0.72,-0.475L0.718,-0.473L0.702,-0.478L0.697,-0.483L0.696,-0.492L0.706,-0.502L0.708,-0.506L0.707,-0.513L0.699,-0.524L0.695,-0.523L0.694,-0.527L0.695,-0.529L0.688,-0.53L0.675,-0.524L0.667,-0.523L0.66,-0.528L0.656,-0.55L0.65,-0.554L0.647,-0.553L0.645,-0.549L0.643,-0.549L0.638,-0.553L0.633,-0.55L0.628,-0.552L0.635,-0.553L0.636,-0.555L0.63,-0.556L0.625,-0.553L0.618,-0.535L0.607,-0.533L0.601,-0.538L0.594,-0.547L0.588,-0.549L0.57,-0.541L0.565,-0.535L0.564,-0.532L0.568,-0.522L0.574,-0.523L0.571,-0.518L0.571,-0.512L0.566,-0.504L0.571,-0.501L0.571,-0.499L0.567,-0.497L0.563,-0.492L0.561,-0.493L0.565,-0.502L0.551,-0.504L0.539,-0.504L0.536,-0.501L0.53,-0.486L0.53,-0.479L0.535,-0.472L0.549,-0.463L0.559,-0.45L0.559,-0.445L0.557,-0.444L0.555,-0.445L0.553,-0.449L0.55,-0.45L0.545,-0.449L0.535,-0.444L0.53,-0.437L0.534,-0.427L0.535,-0.416L0.543,-0.411L0.545,-0.413L0.548,-0.41L0.551,-0.418L0.557,-0.422L0.559,-0.422L0.562,-0.414L0.568,-0.408L0.571,-0.403L0.565,-0.381L0.57,-0.375L0.573,-0.374L0.573,-0.379L0.575,-0.38L0.577,-0.373L0.579,-0.371L0.588,-0.367L0.593,-0.368L0.605,-0.383L0.607,-0.384L0.619,-0.383L0.623,-0.381L0.626,-0.376L0.622,-0.372L0.623,-0.369L0.629,-0.372L0.631,-0.371L0.63,-0.368L0.625,-0.367L0.63,-0.361L0.631,-0.358L0.64,-0.362L0.647,-0.361L0.657,-0.365L0.659,-0.369L0.659,-0.374L0.656,-0.38L0.656,-0.385L0.667,-0.394L0.673,-0.393L0.684,-0.384L0.687,-0.383L0.696,-0.387L0.699,-0.393L0.704,-0.397L0.707,-0.402L0.708,-0.41L0.698,-0.42L0.697,-0.43L0.695,-0.434L0.714,-0.444L0.716,-0.442L0.721,-0.443L0.724,-0.462L0.722,-0.473L0.72,-0.475ZM0.2,-0.268L0.203,-0.272L0.205,-0.281L0.212,-0.291L0.218,-0.296L0.246,-0.304L0.267,-0.3L0.278,-0.294L0.288,-0.284L0.292,-0.278L0.297,-0.266L0.297,-0.248L0.29,-0.228L0.268,-0.208L0.254,-0.206L0.237,-0.207L0.222,-0.214L0.209,-0.226L0.198,-0.243L0.199,-0.266L0.2,-0.268ZM0.384,-0.512L0.38,-0.517L0.371,-0.543L0.377,-0.548L0.383,-0.558L0.394,-0.567L0.405,-0.571L0.417,-0.57L0.431,-0.563L0.438,-0.558L0.443,-0.55L0.445,-0.54L0.443,-0.529L0.437,-0.516L0.423,-0.505L0.406,-0.502L0.394,-0.505L0.387,-0.509L0.386,-0.511L0.384,-0.512ZM0.622,-0.425L0.618,-0.427L0.61,-0.427L0.613,-0.43L0.619,-0.432L0.62,-0.434L0.618,-0.436L0.615,-0.436L0.607,-0.431L0.608,-0.427L0.602,-0.416L0.603,-0.414L0.599,-0.414L0.592,-0.42L0.59,-0.42L0.592,-0.423L0.598,-0.422L0.6,-0.42L0.601,-0.421L0.6,-0.43L0.605,-0.437L0.606,-0.445L0.603,-0.448L0.606,-0.449L0.605,-0.457L0.603,-0.461L0.605,-0.47L0.611,-0.475L0.617,-0.478L0.62,-0.487L0.623,-0.486L0.622,-0.48L0.638,-0.478L0.642,-0.473L0.648,-0.456L0.649,-0.448L0.639,-0.444L0.631,-0.438L0.622,-0.426L0.622,-0.425ZM0.651,-0.5L0.653,-0.491L0.651,-0.488L0.649,-0.488L0.649,-0.497L0.648,-0.499L0.644,-0.498L0.639,-0.499L0.641,-0.502L0.645,-0.501L0.641,-0.51L0.641,-0.516L0.639,-0.514L0.637,-0.514L0.637,-0.517L0.639,-0.521L0.642,-0.521L0.643,-0.519L0.642,-0.516L0.646,-0.516L0.646,-0.519L0.649,-0.52L0.652,-0.517L0.651,-0.511L0.647,-0.509L0.651,-0.504L0.654,-0.504L0.654,-0.509L0.658,-0.51L0.663,-0.518L0.666,-0.515L0.663,-0.508L0.658,-0.503L0.662,-0.502L0.671,-0.507L0.675,-0.506L0.677,-0.501L0.674,-0.491L0.671,-0.492L0.67,-0.498L0.668,-0.5L0.666,-0.492L0.66,-0.497L0.653,-0.5L0.651,-0.5ZM0.126,-0.277L0.144,-0.286L0.143,-0.291L0.15,-0.295L0.151,-0.303L0.158,-0.3L0.157,-0.293L0.155,-0.294L0.153,-0.288L0.159,-0.281L0.151,-0.281L0.149,-0.28L0.15,-0.273L0.149,-0.267L0.15,-0.265L0.146,-0.264L0.141,-0.266L0.146,-0.28L0.14,-0.277L0.137,-0.27L0.132,-0.274L0.128,-0.267L0.126,-0.266L0.126,-0.277ZM0.483,-0.522L0.475,-0.514L0.48,-0.512L0.476,-0.506L0.476,-0.504L0.471,-0.506L0.466,-0.502L0.459,-0.513L0.468,-0.516L0.468,-0.518L0.473,-0.519L0.479,-0.527L0.47,-0.531L0.471,-0.535L0.477,-0.534L0.483,-0.53L0.48,-0.529L0.481,-0.527L0.485,-0.528L0.488,-0.526L0.491,-0.52L0.49,-0.512L0.486,-0.512L0.484,-0.514L0.486,-0.519L0.483,-0.522ZM0.373,-0.467L0.372,-0.471L0.369,-0.474L0.368,-0.472L0.357,-0.483L0.356,-0.489L0.357,-0.491L0.36,-0.489L0.365,-0.492L0.366,-0.494L0.363,-0.5L0.369,-0.5L0.363,-0.508L0.366,-0.51L0.37,-0.51L0.374,-0.508L0.373,-0.503L0.37,-0.499L0.37,-0.497L0.372,-0.497L0.368,-0.494L0.372,-0.493L0.371,-0.492L0.373,-0.492L0.373,-0.487L0.372,-0.488L0.367,-0.482L0.37,-0.48L0.375,-0.484L0.374,-0.489L0.378,-0.486L0.374,-0.477L0.378,-0.468L0.377,-0.467L0.373,-0.467ZM0.342,-0.339L0.333,-0.336L0.331,-0.333L0.332,-0.331L0.335,-0.33L0.33,-0.329L0.331,-0.324L0.328,-0.323L0.32,-0.324L0.317,-0.323L0.313,-0.324L0.313,-0.325L0.319,-0.328L0.323,-0.332L0.322,-0.336L0.32,-0.337L0.316,-0.336L0.314,-0.334L0.314,-0.332L0.311,-0.334L0.311,-0.341L0.325,-0.344L0.328,-0.341L0.328,-0.338L0.331,-0.34L0.339,-0.341L0.34,-0.34L0.342,-0.339ZM0.41,-0.609L0.414,-0.613L0.413,-0.617L0.409,-0.622L0.409,-0.626L0.419,-0.628L0.425,-0.624L0.416,-0.621L0.417,-0.618L0.42,-0.616L0.426,-0.622L0.427,-0.618L0.433,-0.611L0.432,-0.608L0.421,-0.615L0.415,-0.608L0.417,-0.607L0.422,-0.608L0.42,-0.605L0.415,-0.605L0.415,-0.603L0.413,-0.604L0.408,-0.603L0.406,-0.606L0.407,-0.609L0.41,-0.609ZM0.163,-0.341L0.164,-0.345L0.168,-0.344L0.177,-0.349L0.181,-0.347L0.179,-0.341L0.175,-0.338L0.176,-0.332L0.171,-0.33L0.169,-0.331L0.167,-0.325L0.163,-0.327L0.162,-0.329L0.157,-0.327L0.155,-0.328L0.155,-0.331L0.157,-0.332L0.161,-0.331L0.163,-0.329L0.168,-0.332L0.167,-0.337L0.163,-0.341ZM0.263,-0.339L0.264,-0.341L0.27,-0.343L0.277,-0.351L0.274,-0.355L0.271,-0.352L0.267,-0.354L0.266,-0.363L0.273,-0.37L0.277,-0.371L0.272,-0.365L0.271,-0.362L0.281,-0.357L0.282,-0.353L0.278,-0.347L0.267,-0.338L0.264,-0.338L0.263,-0.339ZM0.338,-0.239L0.334,-0.24L0.33,-0.247L0.336,-0.248L0.334,-0.249L0.335,-0.252L0.338,-0.255L0.336,-0.259L0.337,-0.266L0.34,-0.268L0.344,-0.268L0.348,-0.266L0.345,-0.259L0.349,-0.256L0.347,-0.254L0.343,-0.255L0.335,-0.243L0.338,-0.241L0.338,-0.239ZM0.136,-0.194L0.14,-0.196L0.145,-0.196L0.148,-0.2L0.146,-0.204L0.148,-0.206L0.148,-0.212L0.141,-0.221L0.145,-0.223L0.148,-0.223L0.153,-0.216L0.153,-0.207L0.152,-0.205L0.152,-0.197L0.15,-0.194L0.146,-0.193L0.142,-0.194L0.136,-0.194ZM0.328,-0.317L0.34,-0.316L0.349,-0.32L0.352,-0.328L0.358,-0.327L0.352,-0.319L0.339,-0.312L0.331,-0.311L0.332,-0.307L0.334,-0.306L0.334,-0.303L0.329,-0.304L0.326,-0.308L0.327,-0.316L0.328,-0.317ZM0.34,-0.226L0.34,-0.22L0.337,-0.214L0.335,-0.213L0.333,-0.217L0.332,-0.215L0.33,-0.217L0.333,-0.218L0.333,-0.22L0.331,-0.221L0.335,-0.224L0.334,-0.23L0.335,-0.234L0.34,-0.231L0.343,-0.232L0.346,-0.237L0.349,-0.227L0.347,-0.226L0.343,-0.229L0.341,-0.228L0.34,-0.226ZM0.221,-0.362L0.226,-0.36L0.229,-0.354L0.234,-0.351L0.235,-0.345L0.231,-0.345L0.23,-0.352L0.227,-0.349L0.227,-0.347L0.229,-0.346L0.228,-0.345L0.223,-0.345L0.221,-0.347L0.221,-0.353L0.215,-0.353L0.221,-0.36L0.221,-0.362ZM0.183,-0.315L0.18,-0.311L0.182,-0.31L0.181,-0.308L0.174,-0.304L0.174,-0.302L0.17,-0.309L0.17,-0.317L0.172,-0.32L0.181,-0.318L0.182,-0.316L0.183,-0.315ZM0.488,-0.494L0.483,-0.492L0.482,-0.49L0.483,-0.488L0.48,-0.49L0.482,-0.496L0.481,-0.497L0.474,-0.497L0.475,-0.503L0.479,-0.504L0.48,-0.5L0.486,-0.504L0.489,-0.498L0.499,-0.499L0.498,-0.495L0.489,-0.495L0.488,-0.494ZM0.251,-0.356L0.254,-0.357L0.248,-0.348L0.242,-0.343L0.241,-0.345L0.242,-0.347L0.245,-0.348L0.244,-0.35L0.237,-0.354L0.238,-0.357L0.243,-0.361L0.245,-0.361L0.249,-0.356L0.251,-0.356ZM0.355,-0.351L0.348,-0.345L0.35,-0.341L0.352,-0.34L0.352,-0.338L0.358,-0.339L0.359,-0.334L0.357,-0.33L0.354,-0.332L0.345,-0.334L0.345,-0.344L0.352,-0.351L0.355,-0.351ZM0.263,-0.147L0.265,-0.153L0.27,-0.16L0.263,-0.164L0.263,-0.166L0.269,-0.165L0.272,-0.163L0.275,-0.158L0.27,-0.148L0.267,-0.145L0.264,-0.145L0.263,-0.147ZM0.36,-0.327L0.362,-0.327L0.366,-0.332L0.366,-0.334L0.368,-0.333L0.368,-0.331L0.366,-0.329L0.372,-0.314L0.368,-0.316L0.363,-0.315L0.359,-0.316L0.358,-0.318L0.361,-0.324L0.36,-0.327ZM0.467,-0.494L0.465,-0.492L0.468,-0.484L0.463,-0.482L0.464,-0.485L0.463,-0.487L0.458,-0.486L0.454,-0.483L0.454,-0.488L0.456,-0.492L0.459,-0.494L0.464,-0.495L0.463,-0.498L0.469,-0.499L0.47,-0.496L0.467,-0.494ZM0.252,-0.116L0.255,-0.12L0.25,-0.136L0.241,-0.134L0.244,-0.138L0.25,-0.139L0.257,-0.136L0.256,-0.128L0.257,-0.122L0.258,-0.123L0.261,-0.119L0.256,-0.116L0.252,-0.116ZM0.284,-0.334L0.279,-0.333L0.276,-0.336L0.282,-0.344L0.283,-0.351L0.287,-0.351L0.287,-0.348L0.284,-0.344L0.284,-0.34L0.288,-0.335L0.288,-0.331L0.283,-0.327L0.282,-0.328L0.284,-0.333L0.284,-0.334ZM0.337,-0.299L0.344,-0.302L0.349,-0.302L0.351,-0.298L0.344,-0.295L0.341,-0.289L0.339,-0.288L0.332,-0.29L0.333,-0.292L0.338,-0.294L0.338,-0.298L0.337,-0.299ZM0.295,-0.326L0.301,-0.33L0.304,-0.328L0.302,-0.32L0.299,-0.323L0.288,-0.316L0.285,-0.325L0.287,-0.326L0.29,-0.324L0.291,-0.32L0.293,-0.323L0.292,-0.328L0.296,-0.328L0.295,-0.326ZM0.473,-0.577L0.475,-0.587L0.478,-0.588L0.48,-0.587L0.478,-0.582L0.477,-0.584L0.476,-0.58L0.481,-0.576L0.48,-0.573L0.483,-0.566L0.479,-0.568L0.479,-0.569L0.474,-0.568L0.471,-0.569L0.471,-0.571L0.475,-0.575L0.475,-0.577L0.473,-0.577ZM0.216,-0.316L0.214,-0.317L0.205,-0.317L0.202,-0.32L0.201,-0.323L0.203,-0.323L0.206,-0.32L0.209,-0.322L0.21,-0.326L0.216,-0.324L0.22,-0.318L0.22,-0.316L0.216,-0.316ZM0.214,-0.143L0.22,-0.146L0.219,-0.149L0.22,-0.152L0.223,-0.154L0.232,-0.149L0.231,-0.145L0.227,-0.143L0.228,-0.149L0.222,-0.142L0.22,-0.143L0.214,-0.143ZM0.13,-0.259L0.126,-0.26L0.126,-0.266L0.132,-0.261L0.137,-0.26L0.14,-0.257L0.141,-0.254L0.139,-0.252L0.133,-0.254L0.13,-0.252L0.128,-0.253L0.132,-0.258L0.13,-0.259ZM0.321,-0.151L0.312,-0.155L0.314,-0.158L0.319,-0.161L0.32,-0.163L0.324,-0.159L0.328,-0.157L0.329,-0.155L0.325,-0.156L0.323,-0.155L0.321,-0.151ZM0.575,-0.464L0.579,-0.463L0.583,-0.46L0.592,-0.465L0.596,-0.465L0.591,-0.459L0.582,-0.457L0.574,-0.46L0.573,-0.463L0.575,-0.464ZM0.477,-0.594L0.474,-0.589L0.47,-0.588L0.468,-0.589L0.466,-0.583L0.463,-0.581L0.463,-0.577L0.461,-0.579L0.462,-0.584L0.464,-0.587L0.465,-0.593L0.473,-0.594L0.477,-0.594ZM0.384,-0.273L0.387,-0.272L0.39,-0.275L0.395,-0.268L0.397,-0.268L0.392,-0.265L0.386,-0.265L0.383,-0.269L0.383,-0.271L0.384,-0.273ZM0.347,-0.217L0.348,-0.221L0.353,-0.221L0.35,-0.228L0.354,-0.228L0.357,-0.225L0.354,-0.217L0.357,-0.215L0.358,-0.212L0.355,-0.212L0.351,-0.217L0.347,-0.217ZM0.246,-0.373L0.238,-0.375L0.238,-0.378L0.241,-0.383L0.245,-0.384L0.248,-0.38L0.246,-0.373ZM0.369,-0.231L0.363,-0.224L0.361,-0.224L0.362,-0.23L0.36,-0.235L0.366,-0.236L0.371,-0.233L0.372,-0.231L0.375,-0.231L0.372,-0.23L0.369,-0.231ZM0.298,-0.187L0.305,-0.184L0.31,-0.178L0.315,-0.179L0.313,-0.175L0.307,-0.177L0.303,-0.18L0.297,-0.179L0.299,-0.185L0.298,-0.187ZM0.204,-0.339L0.202,-0.333L0.209,-0.331L0.207,-0.327L0.197,-0.329L0.199,-0.337L0.202,-0.339L0.204,-0.339ZM0.252,-0.383L0.256,-0.384L0.264,-0.38L0.269,-0.379L0.27,-0.374L0.263,-0.378L0.255,-0.378L0.252,-0.381L0.252,-0.383ZM0.351,-0.575L0.346,-0.572L0.345,-0.575L0.342,-0.576L0.344,-0.582L0.343,-0.588L0.346,-0.589L0.348,-0.578L0.35,-0.577L0.351,-0.575ZM0.682,-0.456L0.679,-0.454L0.672,-0.455L0.675,-0.46L0.673,-0.462L0.679,-0.463L0.682,-0.461L0.683,-0.458L0.682,-0.456ZM0.256,-0.374L0.261,-0.373L0.265,-0.374L0.265,-0.368L0.263,-0.365L0.258,-0.365L0.256,-0.372L0.256,-0.374ZM0.343,-0.553L0.341,-0.541L0.337,-0.543L0.337,-0.541L0.335,-0.545L0.336,-0.55L0.339,-0.553L0.343,-0.553ZM0.657,-0.458L0.656,-0.466L0.657,-0.473L0.66,-0.475L0.661,-0.471L0.659,-0.468L0.663,-0.463L0.659,-0.459L0.657,-0.458ZM0.568,-0.431L0.581,-0.432L0.58,-0.428L0.575,-0.425L0.57,-0.426L0.568,-0.429L0.568,-0.431ZM0.253,-0.161L0.252,-0.172L0.257,-0.173L0.258,-0.175L0.258,-0.17L0.255,-0.167L0.255,-0.164L0.26,-0.161L0.259,-0.158L0.255,-0.159L0.253,-0.161ZM0.18,-0.282L0.18,-0.281L0.178,-0.285L0.179,-0.287L0.175,-0.288L0.173,-0.292L0.179,-0.293L0.179,-0.29L0.186,-0.291L0.184,-0.286L0.181,-0.284L0.18,-0.282ZM0.205,-0.158L0.209,-0.167L0.212,-0.169L0.215,-0.167L0.214,-0.163L0.211,-0.159L0.207,-0.157L0.205,-0.158ZM0.286,-0.389L0.289,-0.387L0.288,-0.384L0.285,-0.384L0.284,-0.376L0.281,-0.373L0.277,-0.373L0.28,-0.38L0.286,-0.387L0.286,-0.389ZM0.335,-0.168L0.331,-0.167L0.324,-0.17L0.327,-0.173L0.333,-0.172L0.334,-0.173L0.332,-0.178L0.335,-0.176L0.337,-0.17L0.335,-0.168ZM0.127,-0.207L0.128,-0.209L0.132,-0.21L0.133,-0.212L0.139,-0.204L0.135,-0.203L0.128,-0.206L0.127,-0.207ZM0.335,-0.207L0.329,-0.203L0.33,-0.205L0.326,-0.21L0.331,-0.212L0.335,-0.208L0.339,-0.206L0.339,-0.204L0.336,-0.203L0.335,-0.204L0.335,-0.207ZM0.459,-0.573L0.458,-0.575L0.456,-0.575L0.457,-0.577L0.461,-0.578L0.46,-0.574L0.461,-0.572L0.463,-0.572L0.461,-0.569L0.453,-0.568L0.454,-0.569L0.452,-0.57L0.456,-0.574L0.456,-0.573L0.457,-0.574L0.459,-0.573ZM0.664,-0.47L0.667,-0.481L0.672,-0.468L0.668,-0.468L0.664,-0.47ZM0.647,-0.472L0.649,-0.485L0.652,-0.483L0.653,-0.477L0.649,-0.472L0.647,-0.472ZM0.452,-0.598L0.451,-0.594L0.44,-0.598L0.443,-0.602L0.451,-0.598L0.452,-0.598ZM0.339,-0.155L0.34,-0.158L0.339,-0.16L0.345,-0.161L0.348,-0.159L0.345,-0.154L0.341,-0.154L0.339,-0.155ZM0.333,-0.18L0.321,-0.182L0.322,-0.185L0.331,-0.185L0.333,-0.183L0.333,-0.18ZM0.186,-0.33L0.184,-0.336L0.185,-0.338L0.187,-0.338L0.191,-0.335L0.193,-0.335L0.188,-0.33L0.186,-0.33ZM0.157,-0.267L0.16,-0.267L0.163,-0.264L0.162,-0.26L0.158,-0.259L0.156,-0.265L0.157,-0.267ZM0.182,-0.135L0.178,-0.136L0.177,-0.142L0.174,-0.145L0.174,-0.147L0.177,-0.144L0.177,-0.142L0.185,-0.139L0.184,-0.137L0.182,-0.135ZM0.375,-0.238L0.373,-0.241L0.368,-0.244L0.366,-0.247L0.369,-0.247L0.375,-0.241L0.378,-0.243L0.383,-0.242L0.376,-0.239L0.375,-0.238ZM0.467,-0.566L0.469,-0.565L0.468,-0.56L0.465,-0.557L0.462,-0.557L0.461,-0.562L0.465,-0.562L0.467,-0.566ZM0.389,-0.237L0.39,-0.241L0.393,-0.245L0.397,-0.242L0.394,-0.237L0.389,-0.237ZM0.208,-0.178L0.207,-0.18L0.199,-0.184L0.209,-0.188L0.208,-0.186L0.208,-0.178ZM0.341,-0.205L0.343,-0.21L0.341,-0.212L0.348,-0.215L0.346,-0.207L0.343,-0.205L0.341,-0.205ZM0.187,-0.153L0.192,-0.165L0.196,-0.161L0.189,-0.154L0.187,-0.153ZM0.397,-0.456L0.396,-0.459L0.398,-0.463L0.4,-0.463L0.404,-0.459L0.398,-0.455L0.397,-0.456ZM0.272,-0.124L0.275,-0.132L0.274,-0.134L0.277,-0.132L0.276,-0.125L0.28,-0.126L0.282,-0.123L0.274,-0.124L0.272,-0.124ZM0.357,-0.289L0.361,-0.294L0.367,-0.295L0.369,-0.294L0.371,-0.29L0.369,-0.287L0.368,-0.293L0.359,-0.29L0.357,-0.289ZM0.137,-0.233L0.14,-0.231L0.139,-0.225L0.135,-0.224L0.134,-0.228L0.136,-0.232L0.137,-0.233ZM0.644,-0.538L0.639,-0.539L0.634,-0.542L0.636,-0.545L0.64,-0.544L0.642,-0.542L0.644,-0.538ZM0.205,-0.16L0.203,-0.152L0.204,-0.15L0.2,-0.151L0.199,-0.156L0.203,-0.16L0.205,-0.16ZM0.215,-0.335L0.22,-0.334L0.218,-0.326L0.212,-0.331L0.216,-0.333L0.215,-0.335ZM0.621,-0.395L0.621,-0.403L0.628,-0.402L0.623,-0.395L0.621,-0.395ZM0.339,-0.518L0.344,-0.516L0.346,-0.518L0.347,-0.514L0.346,-0.511L0.342,-0.512L0.339,-0.516L0.339,-0.518ZM0.345,-0.288L0.348,-0.29L0.354,-0.285L0.351,-0.282L0.346,-0.286L0.345,-0.288ZM0.356,-0.258L0.352,-0.259L0.351,-0.262L0.359,-0.26L0.362,-0.257L0.359,-0.254L0.357,-0.257L0.356,-0.258ZM0.347,-0.324L0.341,-0.324L0.337,-0.326L0.341,-0.329L0.345,-0.328L0.347,-0.326L0.347,-0.324ZM0.385,-0.462L0.385,-0.458L0.382,-0.459L0.376,-0.464L0.378,-0.465L0.383,-0.464L0.385,-0.462ZM0.388,-0.469L0.383,-0.465L0.382,-0.47L0.387,-0.469L0.389,-0.47L0.387,-0.473L0.389,-0.474L0.393,-0.47L0.393,-0.468L0.39,-0.468L0.388,-0.469ZM0.581,-0.395L0.584,-0.398L0.59,-0.397L0.591,-0.393L0.583,-0.394L0.581,-0.395ZM0.258,-0.354L0.266,-0.349L0.265,-0.347L0.259,-0.348L0.257,-0.352L0.258,-0.354ZM0.16,-0.306L0.156,-0.307L0.154,-0.31L0.154,-0.313L0.158,-0.313L0.16,-0.31L0.16,-0.306ZM0.335,-0.35L0.33,-0.355L0.327,-0.363L0.332,-0.36L0.334,-0.352L0.335,-0.35ZM0.56,-0.454L0.559,-0.459L0.561,-0.461L0.564,-0.46L0.566,-0.456L0.564,-0.456L0.562,-0.454L0.56,-0.454ZM0.348,-0.162L0.349,-0.164L0.353,-0.166L0.357,-0.166L0.353,-0.161L0.349,-0.16L0.348,-0.162ZM0.462,-0.601L0.464,-0.6L0.465,-0.594L0.459,-0.594L0.455,-0.596L0.457,-0.597L0.46,-0.596L0.462,-0.597L0.462,-0.601ZM0.272,-0.325L0.276,-0.328L0.276,-0.33L0.279,-0.327L0.277,-0.323L0.273,-0.321L0.273,-0.323L0.272,-0.325ZM0.229,-0.158L0.225,-0.157L0.219,-0.158L0.221,-0.161L0.227,-0.161L0.228,-0.16L0.229,-0.158ZM0.634,-0.497L0.635,-0.494L0.632,-0.493L0.627,-0.496L0.629,-0.499L0.633,-0.498L0.634,-0.497ZM0.477,-0.548L0.479,-0.546L0.483,-0.547L0.482,-0.542L0.474,-0.545L0.475,-0.547L0.477,-0.548ZM0.506,-0.622L0.511,-0.619L0.511,-0.615L0.506,-0.616L0.505,-0.62L0.506,-0.622ZM0.121,-0.222L0.12,-0.225L0.125,-0.23L0.125,-0.232L0.128,-0.231L0.126,-0.227L0.121,-0.222ZM0.31,-0.164L0.306,-0.165L0.305,-0.169L0.307,-0.17L0.312,-0.167L0.312,-0.165L0.31,-0.164ZM0.267,-0.391L0.265,-0.387L0.26,-0.386L0.259,-0.388L0.261,-0.391L0.267,-0.391ZM0.595,-0.443L0.584,-0.446L0.587,-0.448L0.591,-0.448L0.594,-0.445L0.595,-0.443ZM0.629,-0.385L0.628,-0.39L0.63,-0.394L0.634,-0.393L0.63,-0.386L0.629,-0.385ZM0.239,-0.143L0.24,-0.152L0.243,-0.153L0.243,-0.147L0.241,-0.144L0.239,-0.143ZM0.333,-0.286L0.339,-0.279L0.333,-0.28L0.33,-0.284L0.332,-0.285L0.333,-0.286ZM0.473,-0.461L0.477,-0.459L0.478,-0.455L0.474,-0.454L0.472,-0.459L0.473,-0.461ZM0.35,-0.543L0.355,-0.544L0.357,-0.543L0.355,-0.541L0.356,-0.539L0.358,-0.539L0.355,-0.537L0.352,-0.54L0.35,-0.543ZM0.704,-0.449L0.701,-0.447L0.699,-0.449L0.699,-0.452L0.703,-0.453L0.706,-0.45L0.704,-0.449ZM0.294,-0.184L0.291,-0.187L0.292,-0.191L0.296,-0.189L0.297,-0.185L0.295,-0.185L0.294,-0.184ZM0.278,-0.363L0.278,-0.367L0.286,-0.37L0.282,-0.364L0.28,-0.364L0.278,-0.363ZM0.136,-0.247L0.143,-0.248L0.143,-0.245L0.139,-0.243L0.136,-0.245L0.136,-0.247ZM0.229,-0.123L0.23,-0.126L0.236,-0.125L0.236,-0.124L0.24,-0.125L0.24,-0.122L0.236,-0.123L0.229,-0.123ZM0.527,-0.543L0.526,-0.539L0.523,-0.536L0.521,-0.536L0.52,-0.538L0.523,-0.541L0.527,-0.543ZM0.163,-0.244L0.158,-0.238L0.156,-0.238L0.158,-0.244L0.161,-0.245L0.163,-0.244ZM0.426,-0.636L0.424,-0.63L0.42,-0.631L0.422,-0.636L0.426,-0.636ZM0.327,-0.355L0.326,-0.35L0.324,-0.348L0.321,-0.349L0.321,-0.351L0.325,-0.354L0.327,-0.355ZM0.171,-0.123L0.172,-0.127L0.176,-0.128L0.176,-0.123L0.173,-0.122L0.171,-0.123ZM0.224,-0.364L0.22,-0.367L0.219,-0.371L0.223,-0.37L0.225,-0.367L0.224,-0.364ZM0.193,-0.356L0.19,-0.358L0.188,-0.362L0.186,-0.362L0.189,-0.364L0.193,-0.36L0.193,-0.356ZM0.596,-0.526L0.601,-0.525L0.6,-0.52L0.597,-0.521L0.596,-0.523L0.596,-0.526ZM0.569,-0.416L0.563,-0.417L0.564,-0.421L0.568,-0.42L0.569,-0.418L0.569,-0.416ZM0.49,-0.554L0.496,-0.552L0.497,-0.55L0.493,-0.549L0.49,-0.551L0.49,-0.554ZM0.46,-0.471L0.458,-0.478L0.465,-0.472L0.464,-0.471L0.46,-0.471ZM0.382,-0.26L0.38,-0.257L0.375,-0.256L0.374,-0.258L0.377,-0.26L0.382,-0.26ZM0.399,-0.593L0.394,-0.592L0.393,-0.59L0.392,-0.594L0.395,-0.596L0.398,-0.595L0.399,-0.593ZM0.321,-0.532L0.323,-0.531L0.324,-0.534L0.327,-0.532L0.327,-0.53L0.325,-0.531L0.321,-0.527L0.32,-0.53L0.321,-0.532ZM0.385,-0.229L0.382,-0.231L0.382,-0.233L0.387,-0.236L0.386,-0.231L0.385,-0.229ZM0.24,-0.365L0.239,-0.361L0.235,-0.36L0.237,-0.366L0.239,-0.366L0.24,-0.365ZM0.191,-0.371L0.189,-0.37L0.186,-0.372L0.189,-0.375L0.191,-0.375L0.192,-0.373L0.191,-0.371ZM0.413,-0.599L0.418,-0.6L0.42,-0.599L0.414,-0.595L0.413,-0.597L0.413,-0.599ZM0.385,-0.481L0.389,-0.482L0.39,-0.479L0.388,-0.475L0.385,-0.481ZM0.396,-0.611L0.395,-0.605L0.391,-0.609L0.392,-0.611L0.396,-0.611ZM0.489,-0.585L0.487,-0.584L0.484,-0.586L0.485,-0.59L0.489,-0.587L0.489,-0.585ZM0.452,-0.5L0.453,-0.502L0.457,-0.504L0.458,-0.5L0.454,-0.499L0.452,-0.5ZM0.61,-0.509L0.612,-0.505L0.612,-0.502L0.608,-0.503L0.608,-0.505L0.61,-0.509ZM0.465,-0.507L0.468,-0.509L0.469,-0.513L0.468,-0.514L0.464,-0.51L0.465,-0.508L0.465,-0.507ZM0.516,-0.551L0.518,-0.549L0.519,-0.545L0.515,-0.546L0.514,-0.548L0.515,-0.55L0.516,-0.551ZM0.28,-0.167L0.284,-0.17L0.285,-0.166L0.284,-0.164L0.281,-0.165L0.28,-0.167ZM0.616,-0.509L0.618,-0.503L0.615,-0.501L0.614,-0.505L0.616,-0.509ZM0.626,-0.495L0.62,-0.49L0.618,-0.491L0.62,-0.494L0.624,-0.495L0.626,-0.495ZM0.349,-0.543L0.347,-0.542L0.344,-0.544L0.344,-0.546L0.346,-0.547L0.349,-0.545L0.349,-0.543ZM0.456,-0.584L0.451,-0.585L0.452,-0.589L0.456,-0.587L0.456,-0.584ZM0.322,-0.512L0.324,-0.515L0.33,-0.515L0.327,-0.512L0.322,-0.512ZM0.156,-0.256L0.152,-0.255L0.15,-0.258L0.154,-0.259L0.156,-0.258L0.156,-0.256ZM0.494,-0.485L0.49,-0.484L0.488,-0.487L0.491,-0.488L0.495,-0.486L0.494,-0.485ZM0.476,-0.485L0.472,-0.486L0.471,-0.49L0.475,-0.489L0.476,-0.487L0.476,-0.485ZM0.583,-0.437L0.579,-0.438L0.577,-0.442L0.581,-0.441L0.583,-0.439L0.583,-0.437ZM0.4,-0.239L0.403,-0.244L0.405,-0.243L0.405,-0.24L0.403,-0.239L0.4,-0.239ZM0.132,-0.193L0.129,-0.194L0.129,-0.198L0.133,-0.197L0.133,-0.195L0.132,-0.193ZM0.433,-0.45L0.43,-0.452L0.429,-0.456L0.433,-0.455L0.433,-0.45ZM0.357,-0.179L0.362,-0.183L0.363,-0.181L0.361,-0.178L0.359,-0.178L0.357,-0.179ZM0.603,-0.495L0.606,-0.494L0.607,-0.491L0.605,-0.49L0.602,-0.493L0.603,-0.495ZM0.665,-0.446L0.664,-0.448L0.667,-0.451L0.669,-0.45L0.669,-0.448L0.665,-0.446ZM0.229,-0.331L0.226,-0.329L0.223,-0.33L0.225,-0.334L0.227,-0.333L0.227,-0.331L0.229,-0.331ZM0.177,-0.218L0.178,-0.22L0.181,-0.216L0.182,-0.212L0.18,-0.211L0.18,-0.215L0.177,-0.218ZM0.365,-0.219L0.365,-0.221L0.367,-0.222L0.37,-0.221L0.37,-0.219L0.368,-0.218L0.366,-0.219L0.365,-0.219ZM0.692,-0.437L0.694,-0.444L0.696,-0.439L0.694,-0.437L0.692,-0.437ZM0.28,-0.39L0.28,-0.388L0.275,-0.387L0.274,-0.388L0.275,-0.39L0.28,-0.39ZM0.598,-0.472L0.598,-0.477L0.602,-0.474L0.602,-0.472L0.598,-0.472ZM0.316,-0.174L0.319,-0.174L0.321,-0.171L0.317,-0.17L0.316,-0.172L0.316,-0.174ZM0.379,-0.623L0.377,-0.622L0.375,-0.625L0.378,-0.627L0.38,-0.625L0.379,-0.623ZM0.184,-0.347L0.186,-0.35L0.188,-0.35L0.189,-0.348L0.188,-0.346L0.186,-0.346L0.184,-0.347ZM0.303,-0.212L0.308,-0.213L0.309,-0.212L0.306,-0.209L0.304,-0.21L0.303,-0.212ZM0.544,-0.521L0.543,-0.517L0.538,-0.518L0.542,-0.521L0.544,-0.521ZM0.385,-0.586L0.386,-0.591L0.389,-0.589L0.388,-0.586L0.385,-0.586ZM0.451,-0.46L0.446,-0.463L0.449,-0.464L0.453,-0.462L0.451,-0.46ZM0.225,-0.172L0.227,-0.171L0.229,-0.167L0.225,-0.168L0.224,-0.17L0.225,-0.172ZM0.163,-0.2L0.16,-0.2L0.159,-0.202L0.16,-0.204L0.162,-0.204L0.163,-0.202L0.163,-0.2ZM0.246,-0.179L0.244,-0.179L0.243,-0.182L0.244,-0.183L0.249,-0.183L0.246,-0.181L0.246,-0.179ZM0.152,-0.33L0.15,-0.33L0.148,-0.332L0.147,-0.336L0.15,-0.334L0.152,-0.33ZM0.329,-0.276L0.329,-0.271L0.326,-0.272L0.326,-0.275L0.328,-0.276L0.329,-0.276ZM0.455,-0.607L0.453,-0.604L0.449,-0.602L0.45,-0.606L0.452,-0.606L0.455,-0.607ZM0.657,-0.488L0.66,-0.489L0.661,-0.485L0.659,-0.484L0.658,-0.485L0.657,-0.488ZM0.215,-0.174L0.22,-0.173L0.22,-0.169L0.216,-0.172L0.215,-0.174ZM0.235,-0.387L0.239,-0.388L0.238,-0.383L0.235,-0.385L0.235,-0.387ZM0.135,-0.265L0.135,-0.268L0.139,-0.267L0.14,-0.265L0.138,-0.264L0.137,-0.265L0.135,-0.265ZM0.353,-0.174L0.349,-0.173L0.347,-0.176L0.352,-0.176L0.353,-0.174ZM0.679,-0.493L0.681,-0.497L0.686,-0.499L0.684,-0.496L0.68,-0.494L0.679,-0.493ZM0.293,-0.34L0.292,-0.336L0.289,-0.337L0.289,-0.339L0.291,-0.34L0.293,-0.34ZM0.205,-0.358L0.209,-0.357L0.208,-0.354L0.206,-0.354L0.205,-0.356L0.205,-0.358ZM0.293,-0.151L0.297,-0.15L0.296,-0.147L0.294,-0.147L0.293,-0.149L0.293,-0.151ZM0.325,-0.294L0.322,-0.296L0.322,-0.298L0.326,-0.299L0.325,-0.296L0.325,-0.294ZM0.135,-0.235L0.133,-0.235L0.131,-0.238L0.132,-0.24L0.135,-0.237L0.135,-0.235ZM0.252,-0.145L0.253,-0.148L0.257,-0.147L0.254,-0.144L0.252,-0.145ZM0.387,-0.348L0.392,-0.349L0.391,-0.346L0.387,-0.346L0.387,-0.348ZM0.28,-0.176L0.277,-0.18L0.277,-0.183L0.281,-0.178L0.28,-0.176ZM0.195,-0.137L0.193,-0.137L0.192,-0.141L0.196,-0.14L0.196,-0.139L0.195,-0.137ZM0.347,-0.556L0.347,-0.56L0.351,-0.559L0.349,-0.556L0.347,-0.556ZM0.157,-0.127L0.161,-0.132L0.162,-0.131L0.159,-0.126L0.157,-0.127ZM0.593,-0.411L0.59,-0.413L0.591,-0.416L0.594,-0.414L0.593,-0.411ZM0.16,-0.321L0.158,-0.318L0.156,-0.318L0.156,-0.321L0.158,-0.322L0.16,-0.321ZM0.365,-0.271L0.367,-0.27L0.367,-0.265L0.364,-0.267L0.365,-0.269L0.365,-0.271ZM0.327,-0.548L0.328,-0.552L0.326,-0.559L0.33,-0.55L0.329,-0.549L0.327,-0.548ZM0.124,-0.249L0.127,-0.248L0.125,-0.244L0.123,-0.245L0.124,-0.247L0.124,-0.249ZM0.342,-0.64L0.342,-0.643L0.345,-0.643L0.346,-0.641L0.345,-0.64L0.342,-0.64ZM0.341,-0.495L0.338,-0.491L0.336,-0.494L0.337,-0.495L0.341,-0.495ZM0.476,-0.597L0.483,-0.599L0.482,-0.597L0.476,-0.595L0.478,-0.596L0.476,-0.597ZM0.597,-0.437L0.598,-0.441L0.601,-0.439L0.6,-0.437L0.597,-0.437ZM0.31,-0.341L0.307,-0.34L0.305,-0.341L0.309,-0.344L0.31,-0.341ZM0.364,-0.461L0.36,-0.462L0.361,-0.464L0.365,-0.464L0.364,-0.462L0.364,-0.461ZM0.176,-0.354L0.172,-0.353L0.168,-0.357L0.17,-0.357L0.174,-0.354L0.176,-0.354ZM0.315,-0.363L0.311,-0.364L0.31,-0.366L0.312,-0.367L0.314,-0.365L0.315,-0.363ZM0.369,-0.196L0.369,-0.201L0.373,-0.196L0.369,-0.196ZM0.627,-0.427L0.629,-0.426L0.628,-0.422L0.626,-0.423L0.626,-0.425L0.627,-0.427ZM0.326,-0.566L0.33,-0.566L0.33,-0.563L0.326,-0.564L0.326,-0.566ZM0.388,-0.455L0.392,-0.456L0.393,-0.455L0.389,-0.452L0.388,-0.455ZM0.518,-0.6L0.516,-0.6L0.514,-0.602L0.514,-0.604L0.516,-0.604L0.518,-0.6ZM0.294,-0.355L0.294,-0.351L0.292,-0.351L0.291,-0.354L0.292,-0.355L0.294,-0.355ZM0.227,-0.369L0.229,-0.369L0.231,-0.367L0.231,-0.365L0.228,-0.365L0.229,-0.367L0.227,-0.368L0.227,-0.369ZM0.447,-0.578L0.447,-0.581L0.452,-0.579L0.451,-0.578L0.447,-0.578ZM0.154,-0.338L0.159,-0.337L0.158,-0.335L0.154,-0.336L0.154,-0.338ZM0.672,-0.51L0.672,-0.515L0.675,-0.512L0.674,-0.51L0.672,-0.51ZM0.617,-0.388L0.616,-0.391L0.619,-0.392L0.62,-0.391L0.619,-0.389L0.617,-0.388ZM0.378,-0.592L0.379,-0.588L0.377,-0.587L0.376,-0.594L0.378,-0.592ZM0.446,-0.48L0.442,-0.481L0.44,-0.484L0.445,-0.482L0.446,-0.48ZM0.285,-0.14L0.29,-0.137L0.287,-0.136L0.285,-0.138L0.285,-0.14ZM0.161,-0.405L0.159,-0.407L0.159,-0.409L0.162,-0.409L0.162,-0.407L0.161,-0.405ZM0.473,-0.524L0.472,-0.522L0.468,-0.522L0.468,-0.524L0.473,-0.524ZM0.168,-0.286L0.17,-0.287L0.172,-0.286L0.172,-0.284L0.169,-0.284L0.168,-0.286ZM0.623,-0.41L0.623,-0.414L0.626,-0.412L0.626,-0.41L0.623,-0.41ZM0.193,-0.128L0.188,-0.129L0.191,-0.131L0.193,-0.13L0.193,-0.128ZM0.403,-0.617L0.406,-0.615L0.406,-0.613L0.402,-0.614L0.403,-0.615L0.403,-0.617ZM0.176,-0.267L0.177,-0.269L0.18,-0.268L0.179,-0.265L0.178,-0.266L0.176,-0.267ZM0.287,-0.156L0.287,-0.158L0.292,-0.158L0.288,-0.155L0.287,-0.156ZM0.163,-0.237L0.162,-0.233L0.159,-0.232L0.161,-0.236L0.163,-0.237ZM0.327,-0.573L0.326,-0.578L0.329,-0.578L0.329,-0.577L0.327,-0.573ZM0.224,-0.131L0.226,-0.132L0.226,-0.134L0.229,-0.132L0.229,-0.13L0.226,-0.131L0.224,-0.131ZM0.372,-0.611L0.375,-0.611L0.374,-0.608L0.372,-0.607L0.372,-0.611ZM0.311,-0.212L0.313,-0.211L0.312,-0.207L0.31,-0.209L0.311,-0.212ZM0.411,-0.649L0.414,-0.647L0.413,-0.645L0.411,-0.645L0.411,-0.649ZM0.326,-0.545L0.323,-0.545L0.322,-0.547L0.325,-0.548L0.326,-0.545ZM0.292,-0.094L0.293,-0.098L0.295,-0.098L0.294,-0.094L0.292,-0.094ZM0.303,-0.149L0.308,-0.148L0.307,-0.146L0.304,-0.147L0.303,-0.149ZM0.275,-0.329L0.272,-0.332L0.276,-0.334L0.275,-0.331L0.275,-0.329ZM0.314,-0.516L0.314,-0.518L0.316,-0.519L0.317,-0.516L0.316,-0.515L0.314,-0.516ZM0.123,-0.282L0.123,-0.278L0.12,-0.28L0.121,-0.282L0.123,-0.282ZM0.411,-0.636L0.408,-0.638L0.408,-0.64L0.41,-0.64L0.411,-0.638L0.411,-0.636ZM0.166,-0.245L0.165,-0.247L0.168,-0.25L0.169,-0.248L0.167,-0.247L0.166,-0.245ZM0.267,-0.329L0.265,-0.327L0.262,-0.329L0.265,-0.33L0.267,-0.329ZM0.639,-0.525L0.636,-0.525L0.636,-0.527L0.638,-0.528L0.639,-0.527L0.639,-0.525ZM0.316,-0.311L0.321,-0.316L0.319,-0.311L0.316,-0.311ZM0.356,-0.142L0.356,-0.146L0.36,-0.145L0.357,-0.143L0.356,-0.142ZM0.211,-0.388L0.211,-0.386L0.208,-0.384L0.207,-0.385L0.209,-0.387L0.211,-0.388ZM0.586,-0.502L0.591,-0.5L0.588,-0.499L0.586,-0.5L0.586,-0.502ZM0.217,-0.133L0.218,-0.136L0.221,-0.139L0.219,-0.134L0.217,-0.133ZM0.451,-0.514L0.451,-0.51L0.449,-0.511L0.449,-0.514L0.451,-0.514ZM0.327,-0.196L0.327,-0.198L0.33,-0.197L0.331,-0.195L0.33,-0.195L0.327,-0.196ZM0.693,-0.408L0.69,-0.411L0.691,-0.412L0.694,-0.41L0.693,-0.408ZM0.341,-0.183L0.342,-0.187L0.344,-0.185L0.343,-0.183L0.341,-0.183ZM0.126,-0.233L0.124,-0.233L0.123,-0.237L0.126,-0.235L0.126,-0.233ZM0.351,-0.311L0.353,-0.314L0.355,-0.313L0.354,-0.311L0.351,-0.311ZM0.503,-0.558L0.501,-0.558L0.501,-0.562L0.504,-0.559L0.503,-0.558ZM0.366,-0.491L0.365,-0.487L0.367,-0.487L0.368,-0.489L0.366,-0.491ZM0.377,-0.49L0.38,-0.492L0.381,-0.491L0.38,-0.489L0.378,-0.489L0.377,-0.49ZM0.522,-0.556L0.524,-0.556L0.525,-0.554L0.522,-0.553L0.522,-0.556ZM0.341,-0.49L0.343,-0.489L0.342,-0.485L0.341,-0.486L0.341,-0.49ZM0.237,-0.328L0.234,-0.329L0.233,-0.331L0.237,-0.33L0.237,-0.328ZM0.362,-0.473L0.36,-0.474L0.361,-0.478L0.362,-0.477L0.362,-0.473ZM0.486,-0.611L0.485,-0.607L0.483,-0.608L0.484,-0.61L0.486,-0.611ZM0.178,-0.169L0.182,-0.168L0.181,-0.166L0.179,-0.167L0.178,-0.169ZM0.455,-0.482L0.457,-0.479L0.455,-0.478L0.454,-0.483L0.455,-0.482ZM0.293,-0.175L0.295,-0.173L0.294,-0.171L0.292,-0.173L0.293,-0.175ZM0.694,-0.449L0.692,-0.446L0.69,-0.45L0.692,-0.449L0.694,-0.449ZM0.44,-0.667L0.443,-0.665L0.442,-0.663L0.44,-0.665L0.44,-0.667ZM0.337,-0.436L0.338,-0.439L0.34,-0.439L0.339,-0.436L0.337,-0.436ZM0.08,-0.212L0.078,-0.214L0.079,-0.216L0.081,-0.214L0.08,-0.212ZM0.315,-0.181L0.316,-0.185L0.318,-0.184L0.317,-0.182L0.315,-0.181ZM0.342,-0.596L0.345,-0.599L0.347,-0.599L0.344,-0.596L0.342,-0.596ZM0.617,-0.5L0.617,-0.498L0.615,-0.498L0.615,-0.496L0.614,-0.498L0.615,-0.5L0.617,-0.5ZM0.263,-0.198L0.261,-0.199L0.261,-0.203L0.263,-0.2L0.263,-0.198ZM0.402,-0.45L0.406,-0.45L0.405,-0.448L0.403,-0.448L0.402,-0.45ZM0.604,-0.501L0.607,-0.5L0.607,-0.498L0.604,-0.499L0.604,-0.501ZM0.167,-0.278L0.168,-0.281L0.17,-0.28L0.169,-0.278L0.167,-0.278ZM0.36,-0.586L0.361,-0.587L0.362,-0.583L0.359,-0.581L0.361,-0.584L0.36,-0.586ZM0.63,-0.433L0.633,-0.434L0.633,-0.432L0.631,-0.431L0.63,-0.433ZM0.219,-0.365L0.218,-0.362L0.216,-0.363L0.217,-0.365L0.219,-0.365ZM0.338,-0.484L0.337,-0.481L0.335,-0.482L0.336,-0.484L0.338,-0.484ZM0.588,-0.467L0.586,-0.466L0.584,-0.467L0.585,-0.469L0.586,-0.468L0.588,-0.467ZM0.133,-0.295L0.137,-0.294L0.135,-0.292L0.134,-0.293L0.133,-0.295ZM0.175,-0.129L0.178,-0.131L0.178,-0.128L0.177,-0.128L0.175,-0.129ZM0.326,-0.594L0.328,-0.594L0.329,-0.592L0.326,-0.592L0.326,-0.594ZM0.3,-0.311L0.301,-0.308L0.298,-0.307L0.3,-0.311ZM0.139,-0.302L0.141,-0.301L0.141,-0.298L0.139,-0.3L0.139,-0.302ZM0.177,-0.201L0.176,-0.199L0.174,-0.2L0.175,-0.202L0.177,-0.201ZM0.568,-0.433L0.565,-0.432L0.564,-0.435L0.568,-0.433ZM0.675,-0.477L0.674,-0.475L0.672,-0.476L0.673,-0.478L0.675,-0.477ZM0.348,-0.504L0.349,-0.506L0.348,-0.508L0.351,-0.509L0.349,-0.505L0.348,-0.504ZM0.146,-0.311L0.148,-0.31L0.147,-0.308L0.145,-0.309L0.146,-0.311ZM0.181,-0.299L0.184,-0.298L0.184,-0.296L0.182,-0.297L0.181,-0.299ZM0.341,-0.595L0.34,-0.592L0.338,-0.592L0.339,-0.594L0.341,-0.595ZM0.398,-0.629L0.401,-0.627L0.398,-0.626L0.398,-0.629ZM0.151,-0.167L0.152,-0.17L0.154,-0.17L0.153,-0.168L0.151,-0.167ZM0.445,-0.569L0.445,-0.572L0.448,-0.57L0.445,-0.569ZM0.181,-0.177L0.181,-0.179L0.183,-0.178L0.183,-0.176L0.181,-0.177ZM0.438,-0.482L0.437,-0.487L0.439,-0.487L0.438,-0.484L0.438,-0.482ZM0.171,-0.135L0.173,-0.134L0.17,-0.132L0.17,-0.133L0.171,-0.135ZM0.462,-0.601L0.46,-0.599L0.459,-0.6L0.461,-0.602L0.462,-0.601ZM0.117,-0.273L0.117,-0.275L0.119,-0.275L0.119,-0.273L0.117,-0.273ZM0.328,-0.161L0.329,-0.163L0.331,-0.163L0.33,-0.161L0.328,-0.161ZM0.157,-0.215L0.159,-0.216L0.159,-0.214L0.157,-0.213L0.157,-0.215ZM0.442,-0.462L0.44,-0.464L0.442,-0.466L0.442,-0.462ZM0.348,-0.363L0.35,-0.362L0.35,-0.36L0.348,-0.361L0.348,-0.363ZM0.347,-0.495L0.35,-0.494L0.35,-0.493L0.348,-0.493L0.347,-0.495ZM0.43,-0.642L0.432,-0.641L0.431,-0.639L0.43,-0.64L0.43,-0.642ZM0.344,-0.473L0.343,-0.476L0.346,-0.474L0.344,-0.473ZM0.188,-0.301L0.188,-0.299L0.186,-0.3L0.187,-0.302L0.188,-0.301ZM0.244,-0.189L0.245,-0.19L0.245,-0.186L0.244,-0.186L0.244,-0.189ZM0.213,-0.113L0.21,-0.116L0.213,-0.115L0.213,-0.113ZM0.468,-0.579L0.466,-0.576L0.465,-0.577L0.466,-0.578L0.468,-0.579ZM0.169,-0.176L0.172,-0.176L0.17,-0.174L0.169,-0.176ZM0.484,-0.599L0.485,-0.601L0.486,-0.599L0.485,-0.598L0.484,-0.599ZM0.629,-0.539L0.627,-0.536L0.626,-0.537L0.627,-0.538L0.629,-0.539ZM0.141,-0.343L0.143,-0.341L0.141,-0.34L0.141,-0.343ZM0.297,-0.16L0.3,-0.158L0.297,-0.158L0.297,-0.16ZM0.406,-0.438L0.405,-0.442L0.407,-0.44L0.406,-0.438ZM0.222,-0.185L0.22,-0.186L0.222,-0.188L0.222,-0.185ZM0.186,-0.147L0.188,-0.149L0.189,-0.147L0.186,-0.147ZM0.322,-0.562L0.321,-0.559L0.32,-0.562L0.322,-0.562ZM0.333,-0.526L0.332,-0.527L0.333,-0.529L0.334,-0.527L0.333,-0.526ZM0.334,-0.221L0.334,-0.218L0.336,-0.22L0.334,-0.221ZM0.302,-0.381L0.304,-0.38L0.301,-0.379L0.302,-0.381ZM0.393,-0.381L0.395,-0.382L0.396,-0.38L0.393,-0.381ZM0.537,-0.429L0.535,-0.43L0.538,-0.431L0.537,-0.429ZM0.141,-0.239L0.142,-0.236L0.14,-0.237L0.141,-0.239ZM0.174,-0.242L0.171,-0.241L0.17,-0.243L0.172,-0.242L0.174,-0.242ZM0.215,-0.345L0.216,-0.342L0.214,-0.343L0.215,-0.345ZM0.356,-0.299L0.358,-0.3L0.358,-0.298L0.356,-0.299ZM0.565,-0.445L0.564,-0.443L0.562,-0.444L0.563,-0.444L0.565,-0.445ZM0.191,-0.337L0.191,-0.338L0.194,-0.338L0.192,-0.337L0.191,-0.337ZM0.261,-0.401L0.259,-0.4L0.259,-0.402L0.261,-0.401ZM0.356,-0.6L0.358,-0.599L0.356,-0.598L0.356,-0.6ZM0.376,-0.275L0.378,-0.274L0.376,-0.273L0.376,-0.275ZM0.184,-0.227L0.186,-0.225L0.184,-0.225L0.184,-0.227ZM0.114,-0.185L0.117,-0.186L0.115,-0.184L0.114,-0.185ZM0.602,-0.449L0.601,-0.447L0.6,-0.449L0.602,-0.449ZM0.299,-0.141L0.298,-0.142L0.302,-0.143L0.3,-0.142L0.299,-0.141ZM0.215,-0.151L0.213,-0.15L0.213,-0.152L0.215,-0.151ZM0.316,-0.301L0.317,-0.299L0.315,-0.299L0.316,-0.301ZM0.19,-0.401L0.188,-0.4L0.188,-0.402L0.19,-0.401ZM0.295,-0.131L0.296,-0.133L0.297,-0.132L0.295,-0.131ZM0.513,-0.61L0.515,-0.609L0.514,-0.608L0.513,-0.61ZM0.332,-0.641L0.333,-0.643L0.334,-0.642L0.332,-0.641ZM0.162,-0.318L0.163,-0.32L0.164,-0.319L0.162,-0.318ZM0.372,-0.222L0.373,-0.224L0.374,-0.223L0.372,-0.222ZM0.101,-0.198L0.102,-0.2L0.103,-0.199L0.101,-0.198ZM0.285,-0.199L0.286,-0.2L0.287,-0.198L0.285,-0.199ZM0.485,-0.454L0.486,-0.456L0.487,-0.455L0.485,-0.454ZM0.312,-0.348L0.315,-0.351L0.314,-0.349L0.312,-0.348ZM0.505,-0.524L0.509,-0.525L0.508,-0.524L0.505,-0.524ZM0.186,-0.24L0.189,-0.239L0.186,-0.239L0.186,-0.24ZM0.114,-0.276L0.116,-0.275L0.115,-0.274L0.114,-0.276ZM0.339,-0.563L0.335,-0.562L0.336,-0.563L0.339,-0.563ZM0.17,-0.139L0.171,-0.141L0.172,-0.14L0.17,-0.139ZM0.322,-0.521L0.323,-0.523L0.324,-0.522L0.322,-0.521ZM0.333,-0.191L0.334,-0.193L0.335,-0.192L0.333,-0.191ZM0.632,-0.509L0.633,-0.511L0.634,-0.51L0.632,-0.509ZM0.188,-0.312L0.191,-0.315L0.19,-0.313L0.188,-0.312ZM0.329,-0.525L0.325,-0.524L0.326,-0.525L0.329,-0.525ZM0.26,-0.407L0.261,-0.409L0.262,-0.408L0.26,-0.407ZM0.478,-0.552L0.479,-0.551L0.477,-0.549L0.478,-0.551L0.478,-0.552ZM0.149,-0.429L0.15,-0.43L0.149,-0.435L0.149,-0.429ZM0.177,-0.416L0.175,-0.414L0.176,-0.416L0.177,-0.416ZM0.166,-0.293L0.168,-0.294L0.166,-0.292L0.166,-0.293ZM0.435,-0.283L0.433,-0.283L0.435,-0.284L0.435,-0.283ZM0.532,-0.554L0.53,-0.553L0.53,-0.554L0.532,-0.554ZM0.249,-0.185L0.247,-0.184L0.247,-0.185L0.249,-0.185ZM0.331,-0.519L0.333,-0.521L0.333,-0.52L0.331,-0.519ZM0.32,-0.365L0.321,-0.363L0.32,-0.363L0.32,-0.365ZM0.202,-0.199L0.203,-0.2L0.204,-0.199L0.202,-0.199ZM0.379,-0.582L0.378,-0.584L0.379,-0.584L0.379,-0.582ZM0.374,-0.601L0.372,-0.604L0.373,-0.603L0.374,-0.601ZM0.367,-0.447L0.366,-0.445L0.367,-0.448L0.367,-0.447ZM0.441,-0.445L0.441,-0.446L0.442,-0.445L0.441,-0.445Z" style="fill:rgb(187,166,116);fill-rule:nonzero;"/>
            </g>
        </g>
    </g>
</svg>
